<svg xmlns="http://www.w3.org/2000/svg" width="17" height="16" viewBox="0 0 17 16" fill="none">
<g id="Frame" clip-path="url(#clip0_226_1491)">
<g id="Group">
<path id="Vector" d="M15.8877 7.38822C15.8504 7.43157 15.8048 7.46703 15.7536 7.4925C15.7024 7.51798 15.6467 7.53296 15.5896 7.53656C10.8893 7.84628 6.11865 7.84571 1.41028 7.53472C1.35259 7.5311 1.29622 7.51584 1.24457 7.48986C1.19293 7.46387 1.14708 7.4277 1.10979 7.38353C1.07218 7.33962 1.04386 7.28856 1.02653 7.23341C1.0092 7.17826 1.00322 7.12018 1.00894 7.06265C1.03041 6.83887 1.21569 6.67262 1.437 6.67262C1.44675 6.67262 1.45653 6.67294 1.46641 6.67359C6.13343 6.98184 10.8663 6.98206 15.5335 6.67431C15.7674 6.65931 15.9732 6.83678 15.9917 7.07197C15.9963 7.12895 15.9895 7.18629 15.9717 7.2406C15.9538 7.29491 15.9253 7.3451 15.8877 7.38822ZM13.5604 6.31666C10.1015 6.48037 6.63671 6.47594 3.17825 6.30338V5.65825C3.17825 2.79585 5.50693 2.46714 8.36933 2.46714C11.2317 2.46714 13.5604 2.79585 13.5604 5.65825V6.31666ZM2.17991 5.65825C2.17991 2.24539 4.95646 1.4688 8.36933 1.4688C11.7822 1.4688 14.5588 2.24539 14.5588 5.65825V6.26456C14.3823 6.27463 14.2058 6.28422 14.0292 6.29338V5.65825C14.0292 2.53739 11.4902 1.99839 8.36933 1.99839C5.24849 1.99839 2.7095 2.53739 2.7095 5.65825V6.27891C2.53287 6.26928 2.35634 6.25922 2.17991 6.24872V5.65825ZM16.4589 7.03422C16.4206 6.54559 15.9909 6.17425 15.5026 6.20659C15.3443 6.21703 15.186 6.22713 15.0275 6.23684V5.65825C15.0275 1.98689 12.0407 1.00005 8.36933 1.00005C4.69799 1.00005 1.71116 1.98689 1.71116 5.65825V6.21978C1.63985 6.21522 1.56857 6.21059 1.49732 6.20588C1.00797 6.17363 0.589162 6.53025 0.542318 7.01784C0.51885 7.26231 0.593536 7.49997 0.752629 7.68709C0.911723 7.87428 1.13432 7.98628 1.37938 8.00243C3.75534 8.1591 6.13583 8.23739 8.51695 8.23718C10.891 8.23718 13.2649 8.15956 15.6204 8.00428C15.8626 7.98831 16.0834 7.87846 16.2422 7.69493C16.401 7.51143 16.478 7.27719 16.4589 7.03422Z" fill="#F4EBDC"/>
<path id="Vector_2" d="M13.0625 13.8615C12.8894 14.0944 12.6588 14.2752 12.3983 14.3899L12.4805 13.3937C12.7884 13.3825 13.0959 13.37 13.4032 13.3562C13.2972 13.5297 13.1836 13.6983 13.0625 13.8615ZM10.4931 14.5313L10.5377 13.4477C11.0285 13.4383 11.519 13.4257 12.0088 13.4099L11.9171 14.5205C11.8549 14.5276 11.7922 14.5312 11.7295 14.5313H10.4931ZM4.82163 14.5205L4.72994 13.4099C5.21978 13.4257 5.71022 13.4383 6.20103 13.4477L6.24572 14.5313H5.00929C4.94658 14.5312 4.88392 14.5276 4.82163 14.5205ZM3.67635 13.8615C3.55526 13.6983 3.44156 13.5297 3.3356 13.3562C3.64282 13.37 3.95041 13.3825 4.25826 13.3937L4.34051 14.3899C4.08004 14.2752 3.84938 14.0944 3.67635 13.8615ZM3.95904 9.76898L4.06982 11.1109C3.49742 11.089 2.92519 11.0626 2.3532 11.0319C2.22336 10.5684 2.12586 10.1108 2.05279 9.6782C2.68794 9.71389 3.32338 9.74415 3.95904 9.76898ZM6.05191 9.83123L6.10709 11.1702C5.58485 11.1597 5.06291 11.1456 4.54157 11.1279L4.43082 9.78642C4.97072 9.80523 5.51113 9.82017 6.05191 9.83123ZM8.13499 9.8547V11.1927C7.6154 11.1916 7.09587 11.1869 6.57656 11.1787L6.52137 9.83989C7.05906 9.84864 7.59703 9.85358 8.13499 9.8547ZM10.2174 9.83989L10.1622 11.1787C9.64276 11.1869 9.12326 11.1916 8.60374 11.1927V9.8547C9.14174 9.85358 9.67971 9.84864 10.2174 9.83989ZM12.308 9.78642L12.1972 11.1279C11.6755 11.1456 11.1536 11.1598 10.6317 11.1702L10.6869 9.83123C11.2276 9.82017 11.7681 9.80523 12.308 9.78642ZM10.6123 11.6394C11.128 11.6292 11.6435 11.6155 12.1584 11.5982L12.0476 12.9396C11.5509 12.9559 11.054 12.9688 10.5571 12.9785L10.6123 11.6394ZM8.60374 12.9994V11.6614C9.1169 11.6603 9.62999 11.6558 10.1429 11.6478L10.0876 12.9866C9.59305 12.9941 9.0984 12.9984 8.60374 12.9994ZM6.59591 11.6478C7.10875 11.6558 7.62187 11.6603 8.13499 11.6614V12.9994C7.64025 12.9984 7.14553 12.9941 6.65112 12.9866L6.59591 11.6478ZM4.58041 11.5982C5.09529 11.6155 5.61069 11.6292 6.12647 11.6394L6.18169 12.9785C5.68435 12.9688 5.18744 12.9558 4.69113 12.9396L4.58041 11.5982ZM2.49817 11.5089C3.03482 11.537 3.57166 11.5611 4.10866 11.5814L4.21941 12.9232C3.83401 12.9089 3.44904 12.8927 3.06463 12.8745C2.83614 12.4321 2.64989 11.9708 2.49817 11.5089ZM6.71481 14.5313L6.67047 13.4557C7.15844 13.463 7.64672 13.4672 8.13499 13.4682V14.5313H6.71481ZM8.60374 14.5313V13.4682C9.09205 13.4672 9.5803 13.463 10.0683 13.4557L10.0239 14.5313H8.60374ZM13.6741 12.8745C13.2893 12.8927 12.9043 12.909 12.5193 12.9232L12.6301 11.5814C13.1677 11.5611 13.7045 11.5369 14.2405 11.509C14.0888 11.9706 13.9026 12.432 13.6741 12.8745ZM14.6859 9.6782C14.6129 10.1105 14.5154 10.568 14.3854 11.0319C13.8135 11.0626 13.2413 11.089 12.669 11.1109L12.7797 9.76895C13.4161 9.74411 14.0516 9.71386 14.6859 9.6782ZM15.0749 8.49386C15.0443 8.4907 15.0133 8.49361 14.9838 8.50241C14.9544 8.51122 14.9269 8.52575 14.903 8.54518C14.8791 8.56462 14.8593 8.58856 14.8447 8.61565C14.8301 8.64275 14.8209 8.67246 14.8178 8.70308C14.8006 8.87057 14.7807 9.03777 14.758 9.20461C14.1118 9.24149 13.4653 9.27272 12.8186 9.2983L12.8544 8.86521C12.8569 8.83453 12.8534 8.80365 12.844 8.77434C12.8346 8.74503 12.8195 8.71786 12.7996 8.69438C12.7797 8.6709 12.7553 8.65157 12.728 8.63749C12.7006 8.62341 12.6707 8.61486 12.64 8.61233C12.6094 8.60978 12.5785 8.6133 12.5492 8.62269C12.5198 8.63208 12.4927 8.64716 12.4692 8.66706C12.4457 8.68697 12.4264 8.71131 12.4123 8.73869C12.3982 8.76607 12.3897 8.79596 12.3872 8.82664L12.3468 9.31599C11.8001 9.33531 11.2532 9.35065 10.7062 9.36199L10.7246 8.9153C10.7259 8.88455 10.7211 8.85385 10.7105 8.82495C10.6999 8.79605 10.6838 8.76953 10.6629 8.74689C10.6421 8.72424 10.617 8.70593 10.589 8.693C10.5611 8.68006 10.5309 8.67275 10.5001 8.67149C10.3719 8.66568 10.2616 8.76664 10.2563 8.89602L10.2368 9.37074C9.69247 9.37975 9.14812 9.38482 8.60374 9.38595V8.92377C8.60374 8.86161 8.57905 8.80199 8.5351 8.75804C8.49114 8.71409 8.43153 8.68939 8.36937 8.68939C8.30721 8.68939 8.24759 8.71409 8.20364 8.75804C8.15969 8.80199 8.13499 8.86161 8.13499 8.92377V9.38595C7.59064 9.38484 7.04631 9.37976 6.50203 9.37074L6.48222 8.89024C6.47691 8.76086 6.36678 8.65986 6.23841 8.66571C6.1763 8.66826 6.11776 8.69539 6.07565 8.74111C6.03354 8.78684 6.01132 8.84741 6.01388 8.90952L6.03253 9.36199C5.48528 9.35064 4.93835 9.33533 4.39201 9.31599L4.35066 8.81514C4.34436 8.75412 4.3144 8.698 4.2672 8.65883C4.21999 8.61965 4.15932 8.60053 4.09818 8.60558C4.03704 8.61062 3.98032 8.63943 3.94018 8.68582C3.90004 8.73221 3.87969 8.79248 3.88348 8.85371L3.9202 9.29833C3.27267 9.2727 2.62604 9.24145 1.98076 9.20461C1.95711 9.0304 1.93642 8.85581 1.9187 8.68089C1.91588 8.65005 1.90697 8.62008 1.8925 8.5927C1.87802 8.56532 1.85826 8.54109 1.83437 8.52139C1.81047 8.50169 1.7829 8.48693 1.75326 8.47795C1.72363 8.46897 1.6925 8.46595 1.66169 8.46907C1.63088 8.47219 1.60099 8.48139 1.57376 8.49612C1.54652 8.51086 1.52247 8.53085 1.50301 8.55494C1.48354 8.57903 1.46905 8.60673 1.46035 8.63646C1.45166 8.66618 1.44894 8.69733 1.45236 8.72811C1.60898 10.2739 2.0567 12.4678 3.3001 14.1411C3.69973 14.6789 4.33866 15 5.00929 15H11.7295C12.4001 15 13.0391 14.6789 13.4387 14.1411C14.6773 12.4742 15.1259 10.2899 15.2841 8.75099C15.2905 8.68915 15.272 8.62732 15.2328 8.5791C15.1935 8.53088 15.1368 8.50022 15.0749 8.49386Z" fill="#F4EBDC"/>
</g>
</g>
<defs>
<clipPath id="clip0_226_1491">
<rect width="16" height="16" fill="white" transform="translate(0.5)"/>
</clipPath>
</defs>
</svg>
