<svg width="164" height="36" viewBox="0 0 164 36" fill="none" xmlns="http://www.w3.org/2000/svg">
<g id="Frame 1" clip-path="url(#clip0_226_1445)">
<path id="path24" fill-rule="evenodd" clip-rule="evenodd" d="M71.2711 20.8429C70.1486 19.7111 68.4494 19.3811 66.9213 19.3811C65.4232 19.3811 63.7835 19.7442 62.6818 20.8411L61.6749 24.011H58.6463L65.524 2.22836H68.3443L75.2536 24.011H72.2215L71.2711 20.8429ZM81.0344 19.6121V24.011H78.2489V23.8056C78.2489 16.6533 78.2489 9.5006 78.2489 2.34835V2.14274H78.4509C80.255 2.14274 82.0587 2.14274 83.8625 2.14274C86.1477 2.14274 88.3204 3.06658 89.9351 4.70725C91.5501 6.34817 92.4598 8.55527 92.4598 10.8775C92.4598 13.1998 91.5505 15.4066 89.9351 17.0479C88.3205 18.6883 86.1474 19.6121 83.8625 19.6121H81.0344ZM46.9014 19.6121V24.011H44.1157V23.8056C44.1157 16.6533 44.1157 9.5006 44.1157 2.34835V2.14274H44.3183C46.1306 2.14274 47.9429 2.14274 49.7555 2.14274C52.0407 2.14274 54.2134 3.06658 55.8286 4.70725C57.4435 6.34817 58.3528 8.55527 58.3528 10.8775C58.3528 13.1998 57.4438 15.4066 55.8286 17.0479C54.2134 18.6883 52.0405 19.6121 49.7555 19.6121H46.9014ZM141.671 10.9261V2.23217H144.447V2.43731C144.447 9.55993 144.451 16.6826 144.451 23.8056V24.011H141.665V16.5713C141.665 15.4442 141.222 14.3743 140.439 13.5782C139.655 12.7821 138.602 12.3319 137.493 12.3319H132.996V24.011H130.22V2.23217H132.996V9.50213H137.493C139.008 9.50213 140.467 10.0021 141.671 10.9261ZM115.104 9.50213H119.539C120.648 9.50213 121.701 9.05154 122.484 8.25518C123.268 7.45961 123.711 6.38965 123.711 5.26279V2.22836H126.497V5.26279C126.497 7.14183 125.761 8.92813 124.454 10.2563C124.22 10.4937 123.97 10.7151 123.705 10.9169C123.97 11.1189 124.22 11.3397 124.454 11.5776C125.761 12.9056 126.497 14.6924 126.497 16.5713V24.011H123.711V16.5713C123.711 15.4442 123.268 14.3743 122.484 13.5782C121.701 12.7821 120.648 12.3319 119.539 12.3319H115.104V24.011H112.318V23.8056C112.318 16.6814 112.318 9.55797 112.318 2.43379V2.22836H115.104V9.50213ZM105.365 20.8429C104.242 19.7111 102.544 19.3811 101.015 19.3811C99.5171 19.3811 97.8773 19.7442 96.7757 20.8411L95.7685 24.011H92.7401L99.6174 2.22836H102.438L109.347 24.011H106.315L105.365 20.8429ZM159.956 20.8429C158.834 19.7113 157.134 19.3811 155.606 19.3811C154.107 19.3811 152.468 19.7442 151.366 20.8411L150.36 24.011H147.331L154.209 2.22836H157.029L163.938 24.011H160.906L159.956 20.8429ZM66.9365 7.44077L63.8495 17.1464C64.7995 16.8003 65.9332 16.5513 66.9209 16.5513C67.931 16.5513 69.1735 16.7929 70.1557 17.1493L66.9365 7.44077ZM81.0344 4.97292C81.0344 8.90933 81.0344 12.8457 81.0344 16.7816H83.8625C85.4076 16.7816 86.8745 16.1555 87.966 15.0463C89.0573 13.9377 89.6745 12.4471 89.6745 10.8777C89.6745 9.30764 89.0579 7.8174 87.966 6.70809C86.8745 5.59902 85.4076 4.97292 83.8625 4.97292H81.0344ZM46.9014 4.97292C46.9014 8.90933 46.9014 12.8457 46.9014 16.7816H49.7555C51.3007 16.7816 52.7673 16.1557 53.8593 15.0463C54.9504 13.9377 55.5673 12.4471 55.5673 10.8777C55.5673 9.30794 54.9508 7.8174 53.8593 6.70809C52.7676 5.59884 51.3005 4.97292 49.7555 4.97292H46.9014ZM101.03 7.44077L97.9435 17.1464C98.8933 16.7999 100.027 16.5513 101.015 16.5513C102.025 16.5513 103.268 16.7932 104.25 17.1493L101.03 7.44077ZM155.621 7.44077L152.534 17.1464C153.484 16.7999 154.617 16.5513 155.606 16.5513C156.616 16.5513 157.858 16.7929 158.84 17.1493L155.621 7.44077ZM0.208809 0.299646V1.5032C1.61088 1.22348 3.06571 1.11198 4.35911 1.30635C6.30902 1.73284 7.77084 2.46574 9.46301 3.52138C10.9375 4.47124 12.197 5.49694 13.5109 6.6684C13.5164 6.67321 13.5214 6.67784 13.5269 6.68289C15.2017 8.10299 16.1466 9.40765 16.7319 11.566C17.2432 13.9158 16.9324 15.8059 16.2352 18.0787C16.2352 18.0787 16.2302 18.0949 16.2302 18.0955C15.3601 20.9485 14.3902 23.0541 12.4442 25.3187C10.555 27.3462 8.83075 28.4078 6.22514 29.2752C6.21822 29.2776 6.23957 29.271 6.22928 29.274C5.26823 29.491 3.73341 29.4001 2.75626 29.3164C1.8546 29.2264 1.02209 29.1045 0.208809 28.9342V29.3244C0.934896 29.4914 1.67956 29.6254 2.48142 29.7412C1.67873 29.6559 0.933772 29.5448 0.208809 29.3957V29.6464C0.99843 29.8181 1.80864 29.9467 2.68545 30.0485C3.7928 30.1546 5.31768 30.2558 6.41562 30.0381C6.41923 30.0378 6.45419 30.0267 6.45449 30.0271C9.22189 29.1476 11.0641 28.042 13.0922 25.9268C15.0411 23.7371 16.061 21.7132 17.0133 18.9372C17.0733 18.7548 17.1306 18.5725 17.1868 18.389L17.1881 18.3842C17.9784 15.9145 18.3095 13.8821 17.7877 11.3133C17.1667 8.88966 16.1219 7.39913 14.2617 5.78616C14.2611 5.78556 14.2837 5.80583 14.2837 5.80553C11.3453 3.18013 8.48225 0.98662 4.59887 0.10636C3.19745 -0.0985893 1.68121 0.00724756 0.208809 0.299646ZM0.208809 6.6217C0.279797 6.63498 0.349779 6.64593 0.414673 6.65699C0.547539 6.66895 0.649289 6.65098 0.771092 6.59598C0.890529 6.5348 0.96749 6.466 1.04297 6.35372C1.08645 6.31586 1.40915 5.74071 1.44737 5.65831C1.61632 5.29337 1.76427 4.9788 1.87164 4.58675C1.90725 4.45675 1.94399 4.32736 1.98652 4.19922C2.04047 4.03683 2.15328 3.73188 2.24728 3.58829C2.33714 3.44267 2.17978 3.61334 2.15577 3.63888C2.21948 3.50053 2.32507 3.30821 2.4189 3.19233C2.52035 3.06744 2.26083 3.28735 2.23391 3.30917C2.25272 3.28753 2.44469 2.9765 2.41676 2.86687C2.35187 2.6145 1.52628 3.73992 1.4492 3.83272C1.12567 4.23186 0.858761 4.65487 0.551503 5.06422C0.457503 5.19116 0.359067 5.31755 0.263411 5.44533C0.158172 5.43036 0.208809 6.46249 0.208809 6.6217ZM0.208809 8.15929V8.76912C0.989024 8.93777 1.20364 8.8982 1.09722 9.03794C1.09722 9.03794 1.07918 9.05489 1.06959 9.05309C1.05936 9.05429 1.05126 9.05248 1.04244 9.04707C1.02937 9.04166 1.016 9.0358 1.0034 9.03009C0.766475 8.9326 0.48649 8.85475 0.208809 8.78563C0.208809 8.8268 0.208809 8.86853 0.208809 8.91024L0.266191 8.92939C0.481994 9.0193 0.785467 9.18994 0.846694 9.44568C0.631897 9.3771 0.419939 9.30565 0.208809 9.23148V9.21754C0.328956 9.28684 0.441767 9.3584 0.535293 9.42733C0.631067 9.49741 0.756835 9.56439 0.865209 9.61145C1.00736 9.65701 1.12236 9.65738 1.26434 9.61266C1.40602 9.56055 1.49883 9.48927 1.58638 9.36468C1.62164 9.3437 2.21421 8.49329 2.27491 8.40001C2.68563 7.8074 2.91315 7.37712 3.19911 6.71708C3.29423 6.4849 3.39634 6.25678 3.49318 6.02581C3.69886 5.53874 3.94921 4.92506 4.19873 4.46191C4.21246 4.43751 4.22571 4.41317 4.2376 4.38763C4.25996 4.34051 4.24576 4.35783 4.22524 4.37857C4.21033 4.3945 4.07681 4.57776 4.07681 4.57776C4.11106 4.50396 4.14762 4.42964 4.18318 4.35685C4.27469 4.16801 4.36668 3.95838 4.48866 3.78793C4.64815 3.55557 4.25304 4.02229 4.24505 4.03173C4.34136 3.8626 4.54373 3.50365 4.56574 3.3234C4.56213 2.95822 3.8648 4.14957 3.84924 4.17391C3.36688 4.89232 2.83524 5.52122 2.37435 6.26433C2.04639 6.80567 1.74954 7.21307 1.36183 7.70904C1.18513 7.93514 1.01961 8.16197 0.857636 8.39451C0.640354 8.31734 0.42473 8.23899 0.208809 8.15929ZM0.208809 9.11626V9.16622L0.295532 9.2025C0.279796 9.17497 0.248858 9.14589 0.208809 9.11626ZM0.208809 10.6149V11.3005C1.28475 11.4604 1.63998 11.6845 0.208809 11.4332C0.445258 11.4993 0.658042 11.5409 0.908451 11.6058C1.15466 11.6798 1.59946 11.8405 1.70239 12.1179C1.13597 11.958 0.734176 11.7159 0.210642 11.528L0.208809 11.6258C0.586227 11.7829 0.90993 12.0018 1.26351 12.1847C1.41477 12.2665 1.63075 12.2486 1.79059 12.3078C1.93008 12.3593 2.04869 12.3473 2.1902 12.3003C2.33051 12.2457 2.42221 12.1716 2.50757 12.046C2.53105 12.0285 2.79501 11.6378 2.82861 11.586C2.85742 11.5419 2.88801 11.4885 2.91829 11.4475C3.18006 11.0359 3.43041 10.625 3.67384 10.2018C3.92289 9.76591 4.14478 9.32103 4.38141 8.87976C4.49381 8.6575 4.59686 8.43554 4.69435 8.20625C4.75013 8.04229 4.84727 7.84696 4.91506 7.68138C5.14725 7.11611 5.38453 6.54568 5.62464 5.98384C5.67593 5.86346 5.73006 5.74427 5.79176 5.6293C5.97231 5.28497 5.68569 5.73483 5.65126 5.78964C5.80069 5.45457 5.98556 5.08826 6.18692 4.7848C6.39427 4.47648 5.89866 5.10033 5.88889 5.11349C6.01815 4.88937 6.29051 4.42886 6.34002 4.19651C6.3486 3.74364 5.21989 5.70426 5.19091 5.7527C4.77859 6.43781 4.32829 7.09309 3.91626 7.78024C3.80558 7.97774 3.67384 8.17902 3.55038 8.36865C3.28033 8.78287 3.00567 9.19463 2.73662 9.6094C2.47385 10.0147 2.19451 10.4106 1.93553 10.819C1.90772 10.8631 1.87809 10.9105 1.84868 10.9533C1.81603 11.0016 1.78332 11.0503 1.75102 11.0994C1.26156 10.9685 0.795759 10.8653 0.305411 10.658L0.208809 10.6149ZM0.208809 13.2258V14.3623L1.80875 15.3142C1.85513 15.3415 1.90062 15.3701 1.94612 15.3995C1.74836 15.7134 1.55278 16.0264 1.34562 16.3524C1.01913 16.8664 0.641657 17.3524 0.321621 17.8648C0.282755 17.9249 0.24519 17.9833 0.208809 18.0412L0.111318 19.9179C0.23809 19.7826 2.19185 17.1023 2.2991 16.9522C2.50775 16.6606 2.70486 16.3611 2.89907 16.0595C3.13658 16.2045 3.38362 16.343 3.62651 16.4796C4.12775 16.7561 4.43554 16.8668 4.97451 17.0358C5.20783 17.1078 5.44558 17.173 5.66138 17.2902C6.00703 17.496 6.28637 17.6653 6.66018 17.8235C7.11509 18.0138 7.34213 18.1375 7.75794 18.3983C7.9812 18.5348 8.17612 18.6257 8.41588 18.7231C8.62654 18.8073 8.86316 18.8946 9.05927 19.0084C9.41024 19.2133 9.74631 19.4149 10.1094 19.5975C10.4053 19.7463 10.7061 19.8774 10.9981 20.0361C11.4562 20.28 10.8538 19.9072 10.7795 19.8606C11.2256 20.0776 11.7069 20.3133 12.1282 20.5721C12.131 20.5739 12.1341 20.5763 12.1368 20.5781C12.2984 20.6813 12.2534 20.6465 12.1472 20.5591C12.1113 20.5293 11.6771 20.2185 11.6635 20.2088L12.1846 20.4887C12.3368 20.5719 12.7267 20.7763 12.8898 20.8033C13.0611 20.8187 12.9348 20.6988 12.8457 20.6252L12.2923 20.2854C11.6666 19.8902 11.0147 19.5065 10.3814 19.1184C10.0478 18.9137 9.77015 18.6454 9.45573 18.424C9.06359 18.1477 8.63582 17.9512 8.25722 17.6688C7.81059 17.3323 7.58106 17.1565 7.07025 16.9031C6.75997 16.7441 6.51672 16.5645 6.23011 16.3704C5.92498 16.1753 5.65872 16.0809 5.32431 15.9595C4.86744 15.7964 4.60816 15.6905 4.18353 15.4485C3.96578 15.322 3.74767 15.1958 3.52938 15.0708C3.94921 14.3911 4.28924 13.705 4.67447 13.0019C4.77391 12.8346 4.88696 12.6285 4.97499 12.4541C5.23167 11.9798 5.42623 11.5244 5.64499 11.0348C5.74177 10.8225 5.84323 10.6247 5.96041 10.4229C5.97727 10.3832 6.02608 10.3103 6.05057 10.2686C6.34742 9.75577 6.62196 9.26202 6.88592 8.7309C6.88887 8.72609 6.92064 8.6598 6.92064 8.65962C6.91567 8.60469 7.50529 7.56917 7.59562 7.42408C7.89235 6.94074 7.45003 7.57559 7.39472 7.65258C7.61035 7.27917 7.8281 6.90679 8.04325 6.53223C8.10744 6.42212 8.1708 6.31284 8.2403 6.20538C8.49829 5.80612 8.00912 6.48294 7.99327 6.50361C7.98434 6.51557 7.83704 6.71594 7.83704 6.71594C7.88288 6.64334 7.92707 6.56402 7.96896 6.4892C8.10596 6.25149 8.47101 5.62417 8.52544 5.3804C8.59891 4.91136 7.75481 6.36272 7.75398 6.3644C7.32687 7.04127 6.85664 7.68451 6.4216 8.35771C6.41811 8.36372 6.37954 8.42392 6.37906 8.4244C6.03418 8.95986 5.67132 9.43583 5.29289 9.9449C5.13151 10.1645 4.99682 10.3716 4.86046 10.6076C4.61378 11.0528 4.38224 11.4886 4.11107 11.9199C4.01541 12.0838 3.87805 12.2865 3.77612 12.4465C3.35534 13.1071 2.9623 13.8224 2.53307 14.483C2.32673 14.3603 2.12069 14.2385 1.91387 14.1187C1.35337 13.794 0.775232 13.532 0.208809 13.2258ZM10.9717 9.04685C10.6571 9.42532 10.3832 9.74018 10.1034 10.1533C9.83321 10.5215 9.60398 10.9389 9.3644 11.3271C9.12576 11.7561 8.8802 12.1759 8.62701 12.5957C8.58217 12.6771 8.55786 12.7471 8.54295 12.8395C8.53005 12.9303 8.53289 13.0026 8.55076 13.0922C8.57129 13.183 8.59755 13.2467 8.64624 13.3257C8.69853 13.4042 8.74852 13.4582 8.82377 13.5139C9.70674 14.2015 10.4205 14.8419 11.4068 15.3976C11.6168 15.5093 11.8262 15.6131 12.0406 15.7152C12.2665 15.8058 12.4719 15.9239 12.7082 16.0059C12.9352 16.0848 13.1615 16.1715 13.3898 16.2477C13.8213 16.3911 14.2972 16.5506 14.6692 16.8218C14.7049 16.8522 14.7995 16.9324 14.7998 16.9869C14.9682 17.0192 14.7129 16.7683 14.7081 16.7641C14.6328 16.6702 14.1167 16.3835 14.0007 16.3213C13.8406 16.2358 13.6661 16.1456 13.5137 16.0476C13.2881 15.9022 13.287 15.9292 12.8372 15.6105C12.5736 15.4235 12.9893 15.538 13.0932 15.6117C13.3419 15.782 12.7967 15.4012 12.7858 15.3942C12.6162 15.2933 12.5013 15.2654 12.361 15.1886C12.259 15.1277 12.1571 15.0193 12.0741 14.935C11.991 14.8521 11.9066 14.7827 11.8134 14.7116C11.5601 14.5243 11.0407 14.1047 10.6012 13.5322C10.4461 13.311 10.1054 13.0253 9.81777 12.7979C9.98063 12.4711 10.1266 12.1454 10.2714 11.7974C10.442 11.3885 10.625 10.9861 10.7947 10.5774C10.8005 10.5614 10.8086 10.5442 10.8151 10.5284C10.9938 10.109 11.1623 9.75154 11.3868 9.35709C11.4717 9.2105 11.5492 9.06222 11.6319 8.91545C11.7831 8.63802 11.5373 8.99246 11.5008 9.04073C11.6422 8.77357 11.753 8.48674 11.896 8.22716C12.0303 7.98675 11.684 8.47042 11.6704 8.48809C11.761 8.3082 11.9255 7.93764 11.934 7.74579C11.9095 7.43092 11.0269 8.97641 10.9717 9.04685ZM10.3007 13.4225C10.8353 13.8375 11.3299 14.1937 11.9185 14.5345C12.1275 14.6509 12.3387 14.7637 12.5485 14.8788C12.7171 14.9634 12.8885 15.072 13.0621 15.1768C12.84 15.0794 12.6211 14.9857 12.5129 14.9395C12.4365 14.905 11.8849 14.6829 11.8351 14.6755C11.4919 14.5351 11.0071 14.323 10.7036 14.1063C10.5171 13.9526 10.2679 13.6954 10.3007 13.4225ZM13.0621 15.1768C13.2511 15.29 13.4431 15.3983 13.6363 15.4655C13.9257 15.5614 13.4871 15.3624 13.0621 15.1768ZM10.749 13.8327L11.2409 14.3274C11.1299 14.2462 10.783 13.9839 10.749 13.8327ZM12.2716 10.5175C11.919 10.9885 11.6769 11.5071 11.3602 11.9987C11.3142 12.0797 11.2895 12.1485 11.274 12.2413C11.2607 12.3316 11.2626 12.404 11.2798 12.4932C11.2998 12.5838 11.3254 12.6478 11.3738 12.7267C11.4257 12.8064 11.475 12.8586 11.55 12.9155C11.9332 13.2272 12.2832 13.5636 12.6696 13.8723C13.0939 14.1771 13.6628 14.5071 14.1969 14.5332C14.421 14.5442 15.0571 14.59 15.2525 14.6941C15.3195 14.7196 15.6476 14.8476 15.6232 14.9652C15.8369 14.8976 15.327 14.618 15.3055 14.6058C15.2412 14.572 15.1782 14.5417 15.112 14.5118C14.7425 14.3484 14.6619 14.3061 14.3075 14.1425C14.1304 14.051 14.4053 14.0269 14.4944 14.0727C14.6608 14.1539 14.2977 13.9695 14.2797 13.9622C14.0076 13.8538 14.0864 13.8883 13.8086 13.7075C12.7788 13.0379 12.8387 12.4654 12.5177 12.1985C12.6858 11.7965 12.8049 11.3965 12.9474 10.9685C12.9474 10.9685 12.9539 10.9478 12.9567 10.9394C13.0646 10.6401 13.2284 10.1189 13.4002 9.85719C13.5058 9.68891 13.3259 9.89098 13.3011 9.91922C13.3856 9.75058 13.4927 9.55375 13.6118 9.4098C13.7328 9.26676 13.4318 9.52783 13.408 9.54784C13.4261 9.52716 13.6565 9.17463 13.6374 9.062C13.5834 8.74695 12.3713 10.3943 12.2716 10.5175ZM8.85672 8.2422C8.40068 8.89437 7.93867 9.48059 7.51783 10.1655C7.0974 10.8449 6.68816 11.3521 6.32991 12.0929C6.08381 12.5986 5.81246 13.0501 5.52319 13.5291C5.47438 13.6165 5.4496 13.6893 5.43416 13.7888C5.42227 13.8842 5.42688 13.9605 5.44841 14.054C5.47208 14.1469 5.50384 14.2164 5.55815 14.2951C5.61671 14.3759 5.67297 14.4296 5.75638 14.4832C6.64148 15.0607 7.52498 15.6388 8.41588 16.2061C8.80046 16.4516 9.16185 16.7068 9.53483 16.9691C10.1046 17.3501 10.5914 17.5519 11.2426 17.7311C11.414 17.7769 11.6461 17.8381 11.8065 17.908C12.0426 18.0004 14.0483 18.8104 14.1054 19.1267C14.4778 19.1518 13.2069 18.3906 12.9494 18.2379C12.8574 18.1845 11.7179 17.5418 12.1485 17.6927C12.2099 17.7139 12.1889 17.7031 12.1568 17.6891C12.0696 17.6516 11.9908 17.6171 11.9807 17.6124C11.7479 17.5048 11.5028 17.4159 11.2745 17.3014C10.697 16.9926 11.9344 17.4736 11.4363 17.2204C11.2938 17.1478 11.1456 17.0721 11.1367 17.0684C10.6455 16.8525 10.5475 16.915 10.1388 16.5073C10.0942 16.4633 10.0351 16.3991 9.98856 16.3604C9.28217 15.6973 8.6376 15.3016 7.92808 14.6125C7.60437 14.291 7.15561 13.9894 6.73797 13.7219C6.94632 13.3349 7.13065 12.9568 7.30238 12.5285C7.57959 11.8333 7.94529 11.2534 8.25273 10.5817C8.28816 10.4894 8.33862 10.3874 8.3798 10.296C8.65629 9.67811 8.98479 9.11067 9.27655 8.50929C9.34488 8.36895 9.42976 8.21731 9.5085 8.08262C9.72578 7.70151 9.39007 8.1973 9.34736 8.25933C9.54376 7.88543 9.74815 7.48393 9.97105 7.12782C10.1646 6.82172 9.68195 7.46681 9.64817 7.51098C9.79447 7.25801 10.0879 6.73476 10.145 6.46748C10.1593 6.04568 8.90919 8.16521 8.85672 8.2422ZM7.52581 14.4513C7.89974 14.922 8.07816 15.3252 8.62636 15.5071C9.03525 15.768 9.19923 16.0609 9.59091 16.3462C9.9869 16.6068 10.3553 16.8899 10.7421 17.0553C11.184 17.244 10.859 17.1155 10.6208 17.0333C10.2432 16.9028 9.89326 16.6034 9.52388 16.401C9.10973 16.1735 9.04667 15.895 8.62157 15.6783C8.44037 15.5859 8.30697 15.4674 8.13737 15.3536C7.90359 15.1969 7.56799 14.7679 7.52581 14.4513ZM0.208809 23.7995C0.272698 23.7171 0.527188 23.3704 0.600483 23.2667C0.609416 23.2538 0.623495 23.2363 0.631067 23.2236C0.948619 22.7456 0.89106 22.6938 1.30456 22.2066C1.51475 21.9453 2.32454 20.5788 1.90275 21.454C1.60029 22.0978 2.19682 21.0573 2.33051 20.8814C2.59394 20.5499 2.8812 20.1767 3.19662 19.8968C3.29494 19.8093 3.40941 19.7019 3.49844 19.6056C3.70312 19.3959 3.87521 19.1974 4.04239 18.9818C4.49777 19.2408 4.9457 19.4628 5.42061 19.6898C5.55466 19.7547 5.68688 19.8221 5.81761 19.8932C6.34316 20.1792 6.80085 20.3462 7.34444 20.5685C7.55226 20.6649 7.73895 20.7627 7.93784 20.8761C8.27042 21.0677 8.58933 21.2713 8.92788 21.4529C9.39167 21.6876 9.84161 21.8283 10.298 22.044C10.7087 22.2401 10.1641 21.9307 10.0993 21.8945C10.503 22.0593 10.9094 22.2382 11.2432 22.5272C11.2623 22.545 11.2876 22.5712 11.3076 22.5865C11.339 22.6113 11.3416 22.6126 11.3142 22.5791C11.1967 22.4278 11.0357 22.2861 10.8863 22.1676C11.0592 22.2723 11.2158 22.3784 11.3758 22.5039C11.5018 22.5941 11.7223 22.7916 11.8806 22.8091C12.1765 22.8428 11.8546 22.6258 11.5177 22.332C10.8227 21.7086 10.0294 21.4474 9.26957 20.9188C8.76916 20.5097 8.29325 20.1159 7.75102 19.7639C7.27197 19.5057 6.81493 19.2794 6.35404 18.9833C6.20911 18.8899 6.0663 18.8033 5.91687 18.7179C5.44475 18.454 4.98031 18.191 4.51812 17.908C4.43536 17.8606 4.35231 17.805 4.26972 17.7549C4.18649 17.7071 4.11734 17.6828 4.02351 17.6668C3.93265 17.654 3.85835 17.6563 3.76849 17.6752C3.67768 17.697 3.61243 17.7251 3.53352 17.7757C3.4549 17.8303 3.40113 17.8834 3.3457 17.9622C3.11617 18.2836 2.89179 18.57 2.63848 18.872C2.25521 19.3413 1.94647 19.823 1.59266 20.3095C1.03451 21.0435 0.678571 21.9525 0.208809 22.7471C-0.261012 23.5416 0.208809 23.7995 0.208809 23.7995ZM3.3945 19.5089C3.3945 19.5089 3.39072 19.5131 3.38906 19.5154C3.03081 19.9568 2.71639 20.4621 2.38299 20.9268C1.82384 21.6691 1.434 22.6354 0.887097 23.4263L0.795581 23.5594C0.834447 23.4838 0.862073 23.4301 0.871361 23.4142C1.38253 22.5312 1.66761 21.6252 2.17198 20.7606C2.29112 20.5771 2.39653 20.3801 2.52147 20.2009C2.73958 19.889 3.00105 19.5842 3.38409 19.5087C3.38492 19.5111 3.39154 19.5092 3.39385 19.5089H3.3945ZM0.795581 23.5594C0.623317 23.8126 0.447385 24.0887 0.337059 24.3666C0.163434 24.8158 0.607404 23.9284 0.795581 23.5594ZM2.82761 20.1888C2.65783 20.4179 2.49402 20.6511 2.32288 20.8802C2.08845 21.1819 1.82402 21.6558 1.67837 22.0132C1.39294 22.6808 1.93239 21.2861 2.13376 20.9761C2.17085 20.9232 2.20924 20.8705 2.24911 20.8194C2.34737 20.6955 2.6838 20.2599 2.82761 20.1888ZM9.15208 23.3774C8.70959 23.0529 8.28171 22.7496 7.81686 22.4581C7.29031 22.102 6.73879 21.7451 6.18095 21.4441C5.9794 21.3355 5.76845 21.2304 5.56377 21.1264C5.41813 21.0514 5.28047 20.9598 5.13713 20.8825C4.97451 20.7975 4.83301 20.7762 4.65347 20.8117C4.47523 20.8567 4.35609 20.9354 4.24275 21.0822C4.18779 21.1146 3.1829 22.5107 3.06145 22.6832C2.8799 22.9443 2.70882 23.1688 2.50083 23.408C2.04455 23.9366 1.77385 24.4044 1.57692 25.0739C1.53492 25.2247 1.4434 25.5488 1.37242 25.6774C1.30243 25.8471 0.723114 27.3311 0.463654 27.3267C0.460637 27.6487 1.0115 26.7637 1.19187 26.4591C1.30557 26.2632 1.44553 26.0105 1.58704 25.8336C1.67607 25.7227 1.67228 25.7635 1.63389 25.8681C1.62774 25.8805 1.57929 26.0431 1.57526 26.0536L1.63969 25.872C1.71677 25.6549 1.85626 25.3668 1.97605 25.1755C2.15529 24.8885 2.0497 25.3239 1.9835 25.4467C1.81621 25.7289 2.17978 25.1209 2.18824 25.1038C2.38612 24.717 2.29378 24.6788 2.6557 24.3772C2.80276 24.2524 2.94065 24.1161 3.08097 23.9841C3.24277 23.8257 3.54677 23.4473 3.23602 23.9078C3.21662 23.9357 3.15344 24.0167 3.14167 24.0418C3.11274 24.0811 3.11026 24.0892 3.14764 24.0509C3.38474 23.7967 3.61178 23.5157 3.83551 23.2491C3.9853 23.0759 4.12662 22.93 4.30415 22.7852C4.51102 22.6195 4.74132 22.3515 4.93843 22.0988L5.07608 22.1665C5.27166 22.2618 5.52289 22.3681 5.72692 22.4443C6.29583 22.6566 6.84522 22.9982 7.4133 23.2163C7.50014 23.25 7.58686 23.2869 7.67359 23.321C8.07946 23.4814 8.4725 23.6487 8.866 23.838C9.03111 23.906 9.26016 24.0262 9.41918 24.1163C9.71159 24.2768 9.33612 24.0191 9.28726 23.984C9.57488 24.1264 9.88829 24.2721 10.1587 24.4419C10.4271 24.6122 9.8871 24.1911 9.87208 24.1791C10.068 24.2891 10.4719 24.5063 10.6811 24.5309C11.0253 24.4965 9.24076 23.4409 9.15208 23.3774ZM4.4337 22.4683C4.24192 22.734 4.05398 23.0031 3.86929 23.2738C3.6581 23.5805 3.46141 23.8355 3.21348 24.1131C2.88369 24.4937 2.64605 24.898 2.43445 25.3282C2.59761 24.8967 2.74834 24.47 3.07849 23.9814C3.2898 23.685 3.44668 23.4096 3.62983 23.0986C3.66059 23.0511 3.68673 23.0031 3.72004 22.9564C3.87391 22.7557 4.15076 22.452 4.4337 22.4683ZM2.43445 25.3282C2.31927 25.5626 2.21137 25.8046 2.10116 26.0542C2.08561 26.0903 2.06875 26.1373 2.05106 26.1717C2.04325 26.1873 2.04177 26.2042 2.05733 26.1765C2.22131 25.8803 2.33034 25.6033 2.43445 25.3282ZM3.99837 22.9865C3.93549 23.0652 3.87326 23.1521 3.81404 23.2335C3.60321 23.5228 3.39237 23.7891 3.16533 24.0653C3.09931 24.1452 3.04039 24.2257 2.99011 24.316C2.77715 24.6992 2.99756 24.1863 3.11174 24.0147C3.21135 23.8627 3.33564 23.696 3.44916 23.5546C3.5489 23.4307 3.64823 23.3081 3.75412 23.1897C3.80475 23.1356 3.92437 23.011 3.99766 22.987L3.99837 22.9865ZM7.90294 25.1349C7.27032 24.5957 7.00388 24.4301 6.26685 24.0616C6.0805 23.9629 5.91273 23.857 5.7345 23.7455C5.57318 23.6576 5.43238 23.6346 5.25202 23.6662C5.07313 23.7072 4.95115 23.7844 4.83532 23.929C4.56243 24.2662 4.29208 24.5924 4.00713 24.9193C3.62255 25.3642 3.36427 25.7089 3.25472 26.2982C3.24312 26.3694 3.21183 26.5671 3.18751 26.6255C3.16237 26.7578 2.90901 27.8401 2.63866 27.7756C2.68995 28.0483 3.15078 27.2854 3.15208 27.2832C3.4245 26.8126 3.40462 27.0645 3.4791 26.8062C3.50968 26.7048 3.57818 26.5258 3.63231 26.4355C3.73903 26.259 3.7382 26.5434 3.67934 26.6418C3.57162 26.8303 3.78221 26.4821 3.81221 26.4212C3.92868 26.1795 3.82143 26.1626 4.08007 26.0165C4.38969 25.8197 4.53664 24.664 5.82684 25.0907C6.26489 25.2353 6.69526 25.3638 7.12355 25.526C7.25358 25.5764 7.3742 25.6319 7.49913 25.6946C7.74209 25.8042 8.06987 25.9193 8.29278 26.049C8.46782 26.1502 8.25521 25.9757 8.22492 25.9496C8.39849 26.0315 8.60205 26.1297 8.75526 26.2445C8.9067 26.3596 8.62837 26.0708 8.6027 26.0436C8.62949 26.0653 9.00118 26.2785 9.10908 26.2568C9.39386 26.1996 8.02752 25.2457 7.90294 25.1349ZM6.42089 27.5372C6.4436 27.3935 6.54269 26.9392 6.57511 27.1811C6.57446 27.1624 6.57943 26.9676 6.47437 27.0761C6.46194 27.0892 6.30577 27.0724 6.26004 27.0578C6.1593 27.0244 6.10683 26.9291 6.06826 26.7312C5.95793 26.4859 5.77555 26.7546 5.74047 26.9009C5.73254 26.9331 5.69048 27.1512 5.65706 27.1603C5.63026 27.1677 5.68303 27.2041 5.68303 27.2041C5.66753 27.229 5.64286 27.2573 5.6124 27.2405C5.58164 27.2178 5.66682 27.3281 5.667 27.3275C5.667 27.3275 5.60642 27.3281 5.61606 27.4103C5.64647 27.6191 6.29648 28.0641 6.42089 27.5372ZM13.5466 21.0592C13.3136 20.9134 13.0795 20.7693 12.8457 20.6252C12.8215 20.6052 12.8001 20.5884 12.7879 20.5788C13.0417 20.7363 13.2941 20.8991 13.5466 21.0592ZM19.2526 34.7281C19.1966 34.6776 19.1333 34.6181 19.0837 34.5613C18.7747 34.212 18.5936 33.9658 18.2051 33.6873C18.0135 33.5576 18.01 33.523 17.8697 33.3547C18.0191 33.4948 18.0538 33.5301 18.234 33.636C18.6595 33.8999 18.8338 34.1293 19.1584 34.4922C19.5289 34.8749 19.9083 35.0785 20.276 35.5015C20.2884 35.515 20.3007 35.5307 20.3123 35.5453C20.3007 35.5307 20.2888 35.515 20.2767 35.5013C19.8956 35.0685 19.5198 34.8725 19.1587 34.4887C18.771 34.0439 18.8336 34.1086 19.1711 34.4801C19.5446 34.8594 19.9353 35.0588 20.2994 35.4813C20.3508 35.5395 20.4471 35.6617 20.4471 35.6617C20.3977 35.6035 20.3498 35.5381 20.2994 35.4813C19.9333 35.0591 19.5469 34.8498 19.1852 34.4628C18.8716 34.0968 18.6821 33.8389 18.2822 33.5591C18.2044 33.5067 18.1947 33.4965 18.2842 33.5503C18.6848 33.8018 18.9019 34.0897 19.2077 34.4456C19.2501 34.4926 19.2933 34.5359 19.3389 34.58C19.2949 34.5359 19.2486 34.4875 19.2092 34.4396C18.4012 33.4354 18.5212 33.5539 19.2574 34.3986C19.6247 34.7849 20.0017 34.9842 20.3712 35.4197C20.4696 35.5336 20.5505 35.6523 20.6572 35.7624C20.552 35.6526 20.4683 35.5344 20.372 35.4189C20.0005 34.9821 19.6242 34.7807 19.2597 34.3908C18.932 34.0109 18.7571 33.7705 18.3299 33.4801C18.1416 33.3588 18.1142 33.2964 17.9573 33.1382C17.5826 32.7577 17.2553 32.4031 16.919 31.9852C16.6711 31.6834 16.3643 31.4052 16.1866 31.0595C16.0536 30.7888 15.9544 30.6521 15.7331 30.4519C15.6632 30.39 15.5909 30.3295 15.5206 30.2677C15.253 30.0348 14.9873 29.8274 14.7061 29.6135C14.1152 29.1471 13.1255 28.5184 12.8854 28.1055C12.6486 28.2953 12.4005 28.48 12.1391 28.6592C12.1975 28.7566 12.2563 28.8555 12.3234 28.9536C12.6895 29.4852 13.6175 29.862 14.2188 30.2943C14.4944 30.4844 14.7605 30.6674 15.0255 30.8741C15.2793 31.075 15.3811 31.1102 15.5434 31.3991C15.8067 31.8457 16.0878 32.0503 16.4245 32.4138C16.7992 32.8282 17.1632 33.1753 17.5756 33.5484C17.7702 33.7293 17.8199 33.7937 18.0592 33.9339C18.4455 34.1686 18.625 34.3898 18.931 34.7069C19.1867 34.949 19.416 35.1015 19.6931 35.3024C19.4548 35.1119 19.1563 34.9154 18.955 34.6864C18.7747 34.4868 18.7642 34.4717 18.957 34.6822C19.1882 34.9235 19.4344 35.0946 19.6927 35.3018C19.7114 35.3172 19.7298 35.3318 19.7478 35.3473C19.5848 35.2093 19.4106 35.085 19.2469 34.9482C19.3023 34.9939 19.3614 35.0423 19.42 35.0842C18.4644 34.2945 19.6752 35.2172 19.8739 35.3821C19.6024 35.1317 19.2466 34.9125 19.0075 34.6355C18.686 34.2686 18.7225 34.3046 19.0154 34.627C19.3846 35.0066 19.771 35.2067 20.135 35.6225C20.1829 35.6771 20.2287 35.7388 20.2755 35.7951C20.2732 35.7903 20.2697 35.7857 20.2668 35.781C20.2237 35.7291 20.1807 35.6713 20.1367 35.621C19.7778 35.2094 19.3874 34.9946 19.0379 34.6057C18.6269 34.1077 18.5951 34.0289 19.0826 34.5635C19.1381 34.6215 19.1933 34.6746 19.2526 34.7281ZM10.5416 29.6912C10.6561 29.8268 10.7613 29.9683 10.8408 30.1224C10.9736 30.3929 11.0728 30.5299 11.2941 30.7302C11.3645 30.7924 11.4363 30.8529 11.507 30.9146C11.7737 31.1473 12.0401 31.3549 12.3211 31.5689C13.9883 32.8839 13.5581 32.1353 14.2454 33.2515C14.4096 33.5095 14.5421 33.625 14.7281 33.8446C14.9925 34.1817 15.0722 34.2664 15.4281 34.5087C15.6198 34.6329 15.8024 34.7634 16.0008 34.8784C16.3716 35.0961 16.3872 35.1402 16.6855 35.4396C18.057 36.4692 17.7211 35.9291 17.1613 35.0322C16.8826 34.6109 16.8832 34.5171 16.4386 34.1933C16.2707 34.0591 16.106 33.9199 15.9359 33.7883C15.6687 33.583 15.6554 33.5467 15.4539 33.2767C15.3161 33.1019 15.1582 32.9502 15.0377 32.7651C14.9224 32.5891 14.8271 32.4088 14.704 32.2287C14.6517 32.1525 14.5936 32.0767 14.533 32.0074C14.4989 31.9691 14.4657 31.9334 14.4286 31.8978C14.3655 31.8379 13.0039 31.0284 12.8084 30.888C12.5328 30.6977 12.2668 30.5146 12.0019 30.3084C11.7479 30.1073 11.6461 30.0723 11.4836 29.7828C11.3725 29.5936 11.2578 29.4483 11.1368 29.3156C10.9346 29.4468 10.7384 29.5716 10.5416 29.6912ZM13.5001 34.7281C13.4445 34.6776 13.3806 34.6181 13.3313 34.5613C13.022 34.212 12.8412 33.9658 12.4527 33.6873C12.2613 33.5576 12.2577 33.523 12.1171 33.3547C12.2669 33.4948 12.3016 33.5301 12.4816 33.636C12.907 33.8999 13.0811 34.1293 13.4058 34.4922C13.7765 34.8749 14.1557 35.0785 14.5239 35.5015C14.1431 35.0687 13.7672 34.8725 13.4066 34.4887C13.0184 34.0439 13.0808 34.1086 13.4189 34.4801C13.7925 34.8594 14.183 35.0588 14.5471 35.4813C14.5982 35.5395 14.695 35.6617 14.695 35.6617C14.6452 35.6035 14.5979 35.5381 14.5471 35.4813C14.1813 35.0591 13.7947 34.8498 13.4328 34.4628C13.1192 34.0968 12.9298 33.8389 12.5298 33.5591C12.452 33.5067 12.4419 33.4965 12.5318 33.5503C12.9321 33.8018 13.1495 34.0897 13.4556 34.4456C13.4978 34.4926 13.5407 34.5359 13.5863 34.58C13.543 34.5359 13.4962 34.4875 13.4573 34.4396C12.6489 33.4354 12.769 33.5539 13.5051 34.3986C13.8723 34.7849 14.2494 34.9842 14.6187 35.4197C14.7172 35.5336 14.7983 35.6523 14.9047 35.7624C14.7998 35.6526 14.7162 35.5344 14.6197 35.4189C14.2482 34.9821 13.8716 34.7807 13.5072 34.3908C13.1798 34.0109 13.0047 33.7705 12.5774 33.4801C12.3891 33.3588 12.3622 33.2964 12.2051 33.1382C11.83 32.7577 11.503 32.4031 11.1664 31.9852C10.9186 31.6834 10.6116 31.4052 10.4345 31.0595C10.3011 30.7888 10.2021 30.6521 9.9811 30.4519C9.91047 30.39 9.83865 30.3295 9.76796 30.2677C9.73341 30.2372 9.69863 30.2078 9.66426 30.1782C9.4061 30.306 9.13209 30.4282 8.82856 30.5461C8.97799 30.6515 9.12558 30.7593 9.2727 30.8741C9.52672 31.075 9.62883 31.1102 9.79133 31.3991C10.0544 31.8457 10.3354 32.0503 10.6722 32.4138C11.0468 32.8282 11.4107 33.1753 11.8231 33.5484C12.0178 33.7293 12.0674 33.7937 12.3067 33.9339C12.6926 34.1686 12.8731 34.3898 13.1786 34.7069C13.4344 34.949 13.6639 35.1015 13.9404 35.3024C13.7025 35.1119 13.404 34.9154 13.2026 34.6864C13.0224 34.4868 13.0118 34.4717 13.2044 34.6822C13.4358 34.9235 13.682 35.0946 13.9403 35.3018C13.9588 35.3172 13.977 35.3318 13.9954 35.3473C13.8324 35.2093 13.6585 35.085 13.4943 34.9482C13.5498 34.9939 13.6093 35.0423 13.6673 35.0842C12.7119 34.2945 13.9226 35.2172 14.1213 35.3821C13.8501 35.1317 13.4942 34.9125 13.2552 34.6355C12.9334 34.2686 12.9701 34.3046 13.2632 34.627C13.6325 35.0066 14.0184 35.2067 14.3828 35.6225C14.4301 35.6771 14.4766 35.7388 14.5233 35.7951C14.5208 35.7903 14.5175 35.7857 14.5145 35.781C14.4713 35.7291 14.4286 35.6713 14.3841 35.621C14.025 35.2094 13.635 34.9946 13.2856 34.6057C12.8743 34.1077 12.8429 34.0289 13.3304 34.5635C13.3856 34.6215 13.441 34.6746 13.5001 34.7281ZM6.21207 31.2927C6.32908 31.3853 6.44775 31.4765 6.56884 31.5689C6.90325 31.8325 7.18407 32.1461 7.51091 32.424C7.59213 32.49 7.65951 32.5359 7.75664 32.5768C7.87265 32.6207 7.96694 32.6321 8.08957 32.6127C8.1114 32.6078 8.31922 32.5724 8.18523 32.5798C8.13157 32.5798 8.08094 32.5722 8.03397 32.545C8.01427 32.5329 8.03018 32.5432 8.04012 32.5526C8.09502 32.6074 8.14465 32.6789 8.18854 32.7436C8.29875 32.9121 8.38873 33.0815 8.49302 33.2515C8.6573 33.5095 8.78934 33.625 8.97568 33.8446C9.24028 34.1817 9.31973 34.2664 9.67532 34.5087C9.86746 34.6329 10.05 34.7634 10.2486 34.8784C10.6193 35.0961 10.6349 35.1402 10.9333 35.4396C12.3044 36.4692 11.9688 35.9291 11.4085 35.0322C11.1302 34.6109 11.1305 34.5171 10.6865 34.1933C10.5178 34.0591 10.3534 33.9199 10.1834 33.7883C9.91609 33.583 9.90337 33.5467 9.70194 33.2767C9.56363 33.1019 9.40557 32.9502 9.28513 32.7651C9.16977 32.5891 9.07465 32.4088 8.95154 32.2287C8.89907 32.1525 8.84151 32.0767 8.78094 32.0074C8.74668 31.9691 8.71326 31.9334 8.67599 31.8978C8.61311 31.8381 8.55656 31.7938 8.48107 31.7503C8.37305 31.6913 8.28284 31.6666 8.15926 31.6678C8.0904 31.6726 7.84668 31.7365 7.93784 31.7197C7.98812 31.7129 8.03462 31.7167 8.08194 31.736C8.11407 31.7513 8.09058 31.7436 8.06721 31.7264C7.79468 31.5141 7.56184 31.2892 7.29812 31.074C7.10864 31.1133 6.9223 31.1483 6.75962 31.1836C6.57511 31.2234 6.39261 31.2599 6.21207 31.2927ZM4.96073 31.4668C5.10702 31.6435 5.27053 31.8109 5.41416 31.9852C5.75041 32.4031 6.07772 32.7577 6.45319 33.1382C6.60924 33.2964 6.63669 33.3588 6.82516 33.4801C7.25245 33.7705 7.42732 34.0109 7.75481 34.3908C8.11951 34.7807 8.4958 34.9821 8.86713 35.4189C8.96361 35.5344 9.04749 35.6526 9.15244 35.7624C9.04566 35.6523 8.9648 35.5336 8.8663 35.4197C8.49699 34.9842 8.11969 34.7849 7.75268 34.3986C7.01648 33.5539 6.89651 33.4354 7.70464 34.4396C7.74357 34.4875 7.79036 34.5359 7.83425 34.58C7.78841 34.5359 7.74552 34.4926 7.70287 34.4456C7.39703 34.0897 7.17963 33.8018 6.77914 33.5503C6.68981 33.4965 6.69975 33.5067 6.77766 33.5591C7.17732 33.8389 7.3668 34.0968 7.68051 34.4628C8.04207 34.8498 8.4286 35.0591 8.79448 35.4813C8.84483 35.5381 8.8931 35.6035 8.94243 35.6617C8.94243 35.6617 8.84595 35.5395 8.79448 35.4813C8.43044 35.0588 8.04012 34.8594 7.66643 34.4801C7.32888 34.1086 7.266 34.0439 7.65418 34.4887C8.01527 34.8725 8.39121 35.0685 8.77165 35.5013C8.40346 35.0783 8.02421 34.8749 7.65371 34.4922C7.32906 34.1293 7.15449 33.8999 6.72921 33.636C6.54896 33.5301 6.51442 33.4948 6.36481 33.3547C6.50495 33.523 6.50897 33.5576 6.7004 33.6873C7.08859 33.9658 7.26978 34.212 7.57894 34.5613C7.62839 34.6181 7.69192 34.6776 7.74818 34.7281C7.68843 34.6746 7.63336 34.6217 7.57811 34.5637C7.0906 34.0291 7.12219 34.1079 7.53309 34.6059C7.88259 34.9947 8.27272 35.2096 8.63198 35.6212C8.67599 35.6714 8.71888 35.7292 8.76224 35.7812C8.76502 35.786 8.76833 35.7904 8.771 35.7953C8.72414 35.739 8.67818 35.6773 8.63032 35.6227C8.26616 35.2069 7.87975 35.0068 7.51108 34.6272C7.21802 34.3048 7.18093 34.2687 7.50245 34.6356C7.74191 34.9127 8.09732 35.1319 8.36903 35.3823C8.17032 35.2174 6.95986 34.2947 7.9153 35.0844C7.85691 35.0425 7.7977 34.9941 7.74209 34.9483C7.90625 35.0852 8.07999 35.2094 8.24297 35.3475C8.2251 35.332 8.20641 35.3174 8.18801 35.3019C7.92973 35.0948 7.68347 34.9236 7.45199 34.6824C7.25955 34.4717 7.27032 34.4868 7.45033 34.6866C7.65188 34.9156 7.95026 35.1121 8.18837 35.3026C7.91134 35.1017 7.68216 34.9492 7.42637 34.7071C7.12053 34.39 6.9407 34.1687 6.55446 33.934C6.31553 33.7938 6.26572 33.7295 6.07062 33.5486C5.65872 33.1755 5.29437 32.8284 4.91973 32.4139C4.61472 32.0844 4.35497 31.8851 4.11302 31.5185C4.39448 31.5104 4.67631 31.4933 4.96073 31.4668ZM0.208809 31.0901V31.0381C0.472706 31.1131 0.739146 31.1781 1.00854 31.2321C1.31515 31.2935 1.61614 31.3457 1.91204 31.3877C2.52644 31.9263 2.68048 31.4751 3.19929 32.2287C3.32204 32.4088 3.41751 32.5891 3.53287 32.7651C3.65331 32.9502 3.81138 33.1019 3.94921 33.2767C4.15094 33.5467 4.16383 33.583 4.43122 33.7883C4.60135 33.9199 4.76551 34.0591 4.93393 34.1933C5.37843 34.5171 5.3779 34.6109 5.65641 35.0322C6.21674 35.9291 6.55227 36.4692 5.18049 35.4396C4.88235 35.1402 4.86726 35.0961 4.49629 34.8784C4.2977 34.7634 4.11485 34.6329 3.92289 34.5087C3.56748 34.2664 3.48785 34.1817 3.22313 33.8446C3.03726 33.625 2.90475 33.5095 2.74059 33.2515C2.35796 32.6306 1.52877 32.1306 0.816405 31.5689C0.60776 31.4099 0.407338 31.2547 0.208809 31.0901ZM0.208809 33.4489V32.6222C0.366343 32.7944 0.528489 32.9635 0.700398 33.1382C0.857103 33.2964 0.884435 33.3588 1.07273 33.4801C1.50002 33.7705 1.67506 34.0109 2.00237 34.3908C2.36695 34.7807 2.74337 34.9821 3.11487 35.4189C3.21135 35.5344 3.29494 35.6526 3.40018 35.7624C3.2934 35.6523 3.21218 35.5336 3.11375 35.4197C2.74455 34.9842 2.36743 34.7849 2.00024 34.3986C1.26404 33.5539 1.1439 33.4354 1.95209 34.4396C1.99131 34.4875 2.0381 34.5359 2.08164 34.58C2.03597 34.5359 1.99297 34.4926 1.95073 34.4456C1.64477 34.0897 1.42755 33.8018 1.02688 33.5503C0.93738 33.4965 0.947141 33.5067 1.02523 33.5591C1.42507 33.8389 1.61437 34.0968 1.92807 34.4628C2.28982 34.8498 2.67634 35.0591 3.04223 35.4813C3.09251 35.5381 3.14084 35.6035 3.19018 35.6617C3.19018 35.6617 3.09334 35.5395 3.04223 35.4813C2.67818 35.0588 2.28751 34.8594 1.91399 34.4801C1.57627 34.1086 1.51374 34.0439 1.90175 34.4887C2.26248 34.8725 2.63866 35.0685 3.01939 35.5013C2.65102 35.0783 2.27159 34.8749 1.9011 34.4922C1.57645 34.1293 1.40223 33.8999 0.976778 33.636C0.796705 33.5301 0.761981 33.4948 0.612551 33.3547C0.752693 33.523 0.756834 33.5576 0.948324 33.6873C1.33633 33.9658 1.51753 34.212 1.8268 34.5613C1.87631 34.6181 1.93949 34.6776 1.99545 34.7281C1.93618 34.6746 1.88092 34.6217 1.82532 34.5637C1.33816 34.0291 1.36958 34.1079 1.78048 34.6059C2.13027 34.9947 2.52064 35.2096 2.87972 35.6212C2.92374 35.6714 2.9668 35.7292 3.00963 35.7812C3.01312 35.786 3.01626 35.7904 3.01874 35.7953C2.97224 35.739 2.92575 35.6773 2.87777 35.6227C2.51384 35.2069 2.12731 35.0068 1.75812 34.6272C1.46559 34.3048 1.42867 34.2687 1.75019 34.6356C1.98912 34.9127 2.34507 35.1319 2.61665 35.3823C2.41807 35.2174 1.20725 34.2947 2.16292 35.0844C2.10448 35.0425 2.04526 34.9941 1.98965 34.9483C2.15393 35.0852 2.32773 35.2094 2.49071 35.3475C2.47249 35.332 2.45415 35.3174 2.43558 35.3019C2.1773 35.0948 1.93121 34.9236 1.69955 34.6824C1.50712 34.4717 1.51771 34.4868 1.6979 34.6866C1.89915 34.9156 2.19765 35.1121 2.43575 35.3026C2.15908 35.1017 1.92943 34.9492 1.67394 34.7071C1.36798 34.39 1.18826 34.1687 0.801852 33.934C0.562919 33.7938 0.512932 33.7295 0.318367 33.5486L0.208809 33.4489ZM0.208809 35.9604V35.5308C0.417277 35.8906 0.484833 36.0894 0.208809 35.9604ZM13.615 35.0415C13.6327 35.0553 13.6871 35.0979 13.6673 35.0842C14.3649 35.6225 14.3009 35.5738 13.615 35.0415ZM7.86271 35.0415C7.88022 35.0553 7.9347 35.0981 7.9153 35.0844C8.61264 35.6227 8.54827 35.5738 7.86271 35.0415ZM2.10992 35.0415C2.12784 35.0553 2.18256 35.0981 2.16292 35.0844C2.8602 35.6227 2.79602 35.5738 2.10992 35.0415ZM31.3582 0.742123C31.3971 0.742664 31.5358 0.74453 31.4867 0.745132C33.1336 0.752043 32.9533 0.757089 31.3582 0.742123ZM19.4291 12.5732C19.5188 12.5738 19.6085 12.5756 19.699 12.5798C19.9431 12.5942 20.1196 12.602 20.3652 12.5858C20.6995 12.5622 21.026 12.5464 21.3609 12.54C21.4618 12.5352 21.5689 12.5388 21.6703 12.5388C21.8955 12.5392 22.1634 12.5436 22.3845 12.5056C22.7967 12.4326 23.0792 12.4597 23.4868 12.4901C24.0937 12.5251 24.662 12.4675 25.2757 12.5263C25.533 12.5563 25.6513 12.5546 25.9083 12.5344C26.3971 12.4984 26.8563 12.501 27.3446 12.5071C27.7563 12.494 28.1725 12.5131 28.5826 12.5388C28.9062 12.5745 29.1609 12.5734 29.4844 12.5637C29.7177 12.5583 29.9468 12.5679 30.1802 12.5703C30.3783 12.5679 30.5257 12.4724 30.7897 12.46C31.2077 12.472 31.5393 12.6533 31.9432 12.6577C32.2871 12.6473 32.5242 12.6767 32.8593 12.7286C34.2977 12.9718 34.2948 13.1691 32.8325 13.2831C32.5432 13.2975 32.3003 13.3169 32.0133 13.3645C31.4822 13.4239 31.253 13.2884 30.8074 13.2953C30.6404 13.3738 30.3869 13.4356 30.2071 13.4491C29.984 13.4627 29.7573 13.4617 29.5326 13.474C29.1599 13.4966 28.8735 13.5062 28.4981 13.471C28.1166 13.4386 27.7276 13.4511 27.3445 13.4447C27.0821 13.4393 26.8201 13.4314 26.5576 13.4289C26.3625 13.4271 26.1744 13.4375 25.9801 13.4415C25.6667 13.4605 25.488 13.4558 25.1743 13.413C24.5954 13.3388 24.01 13.379 23.4196 13.3264C23.0957 13.2916 22.8453 13.2522 22.5182 13.2976C22.1341 13.3454 21.7464 13.3136 21.3609 13.3013C21.039 13.2947 20.7259 13.2965 20.4041 13.3061C20.1263 13.315 19.9259 13.2961 19.6524 13.2711C19.5898 13.2657 19.5272 13.2612 19.4647 13.2575C19.4583 13.0292 19.4467 12.8007 19.4291 12.5732ZM19.2555 11.2284C19.2999 11.2272 19.3439 11.226 19.3886 11.2248C19.6396 11.2105 19.8218 11.2041 20.0741 11.2212C20.4155 11.2459 20.7476 11.2629 21.0893 11.2703C21.4193 11.2757 21.8207 11.2563 22.1399 11.3101C22.5256 11.3804 22.803 11.3632 23.1869 11.3377C23.2052 11.3365 23.243 11.3317 23.2591 11.3329C23.8804 11.3037 24.4599 11.3667 25.0875 11.3117C25.3513 11.2837 25.4728 11.2879 25.7352 11.3094C26.2349 11.3488 26.7029 11.3488 27.2025 11.3465C27.6245 11.3617 28.0475 11.3453 28.4682 11.3212C28.7978 11.2875 29.0579 11.2905 29.3873 11.3007C29.6264 11.3067 29.8599 11.2977 30.0983 11.2965C30.2954 11.299 30.4501 11.3961 30.7207 11.4087C31.1488 11.3967 31.489 11.2162 31.898 11.211C32.2505 11.2206 32.4939 11.191 32.8371 11.1373C34.3128 10.8823 34.2951 10.6654 32.8082 10.5457C32.5143 10.5299 32.2659 10.5099 31.9738 10.4637C31.4253 10.404 31.1988 10.5412 30.7402 10.5375C30.601 10.4667 30.2773 10.399 30.1271 10.3887C29.8984 10.3769 29.6673 10.3796 29.4374 10.3704C29.0568 10.3515 28.7641 10.3458 28.3817 10.3857C28.0714 10.4173 27.7548 10.4173 27.4428 10.4235C27.3657 10.4253 27.2773 10.4229 27.202 10.4295C26.7291 10.4433 26.2801 10.4578 25.8059 10.4364C25.4877 10.4186 25.3065 10.424 24.9889 10.4672C24.3953 10.5431 23.7993 10.5048 23.1955 10.56C22.8611 10.5961 22.6024 10.6366 22.2641 10.5916C21.8739 10.5462 21.4804 10.5793 21.0893 10.5928C20.76 10.6 20.4384 10.5999 20.109 10.591C19.8269 10.583 19.6248 10.6026 19.3479 10.6285C19.2694 10.6351 19.191 10.6405 19.1127 10.645C19.1692 10.8432 19.2167 11.0377 19.2555 11.2284ZM31.6162 8.79784C31.3174 8.79147 31.0365 8.78979 30.7377 8.79737C30.5107 8.81432 30.3295 8.81935 30.1021 8.80793C29.7177 8.7866 29.3341 8.76762 28.9504 8.73787C29.3364 8.72609 29.7181 8.7214 30.1046 8.72609C30.325 8.7303 30.5092 8.71915 30.7281 8.6995C31.0606 8.6763 31.3915 8.69092 31.7244 8.69711C32.1934 8.70552 32.5679 8.71713 33.038 8.65192C33.15 8.63491 33.2559 8.6147 33.3694 8.60881C33.2559 8.61422 33.15 8.63406 33.0378 8.65107C32.5654 8.71424 32.1939 8.70487 31.7248 8.69579C31.3931 8.68822 31.0606 8.67341 30.7293 8.68904C30.6762 8.69265 30.6697 8.69144 30.727 8.68603C31.0481 8.6564 31.4011 8.67288 31.7248 8.6766C32.1878 8.68141 32.5708 8.68905 33.034 8.62246C33.2601 8.58616 33.4239 8.55135 33.6516 8.60478C33.3979 8.55387 33.2799 8.58381 33.0337 8.6218C32.5664 8.68653 32.1918 8.67359 31.725 8.66211C31.3922 8.65256 31.0594 8.63424 30.7262 8.64986C30.5054 8.66537 30.3271 8.66884 30.1067 8.6576C29.4594 8.62196 29.3777 8.61003 30.1071 8.63713C30.325 8.64519 30.5035 8.63953 30.7213 8.62349C31.0058 8.6075 31.2902 8.61926 31.5743 8.62888C31.2845 8.61373 31.0129 8.60635 30.723 8.60617C30.5035 8.61729 30.3255 8.61797 30.1081 8.59729C30.0012 8.58852 30.0065 8.58148 30.1087 8.58178C30.3217 8.58418 30.5024 8.57635 30.7156 8.55892C31.0518 8.53741 31.3889 8.55414 31.7254 8.56256C32.1838 8.57259 32.5601 8.58585 33.0189 8.52551C33.3044 8.48349 33.4292 8.4556 33.7201 8.5273C33.8038 8.54948 33.8811 8.56783 33.9666 8.58141C33.8796 8.56783 33.8048 8.54563 33.7202 8.52664C33.4265 8.45416 33.3051 8.48204 33.0188 8.52363C32.5576 8.58386 32.1855 8.56939 31.7256 8.55749C31.3889 8.54788 31.0551 8.53027 30.7183 8.54704C30.5019 8.56321 30.3267 8.56807 30.1094 8.55863C29.5802 8.53477 29.0525 8.52568 28.523 8.50988C28.2312 8.50164 27.9076 8.5069 27.6205 8.46164C27.1595 8.38615 26.7872 8.4181 26.3281 8.43673C25.9655 8.44731 25.608 8.43075 25.2448 8.44601C25.0008 8.45977 24.8251 8.46702 24.58 8.45019C24.4523 8.44112 24.3245 8.43271 24.1968 8.42514C23.9914 8.41438 23.7877 8.41289 23.5834 8.40412C23.265 8.40051 22.8702 8.42196 22.5617 8.3725C22.1479 8.30025 21.8656 8.32812 21.4569 8.36076C20.8497 8.39838 20.282 8.3443 19.6687 8.40782C19.4116 8.43962 19.2933 8.43992 19.0353 8.42195C18.7537 8.40398 18.4839 8.39907 18.2122 8.40045C18.3716 8.70926 18.5203 9.02634 18.654 9.34476C18.7561 9.34776 18.8585 9.35113 18.9613 9.35672C19.2797 9.37601 19.4571 9.37084 19.7741 9.32528L19.7715 9.32579C20.3479 9.23804 20.9475 9.30204 21.5273 9.23298C21.8472 9.19764 22.0977 9.15767 22.4216 9.20136C22.8075 9.24878 23.1967 9.21634 23.5834 9.20257C23.9047 9.19518 24.2176 9.19603 24.5392 9.20558C24.8177 9.2137 25.0194 9.19481 25.293 9.16879C25.6506 9.13784 26.0068 9.13868 26.3654 9.1123C26.7655 9.07798 27.1247 9.02921 27.5278 9.07646C27.8559 9.11192 28.1871 9.09632 28.5165 9.08977C29.0427 9.08202 29.568 9.06723 30.0947 9.06879C30.331 9.06939 30.5236 9.05413 30.7572 9.02792C31.0781 8.99697 31.4006 9.00369 31.7225 8.99828L32.5791 8.96806C32.2905 8.98404 32.0107 8.98048 31.7225 8.97778C30.8509 8.96672 30.7518 8.95965 31.7226 8.97359C32.0104 8.9766 32.2907 8.98158 32.5791 8.96806C32.6125 8.96565 32.6457 8.96398 32.6787 8.96145C32.3847 8.98249 32.0908 8.97641 31.7964 8.9722C31.8974 8.9734 32.0006 8.9764 32.1014 8.974C31.9765 8.97159 31.8474 8.96268 31.7226 8.95529C31.4321 8.9351 31.3394 8.92117 31.7226 8.91817C32.1077 8.91696 32.4524 8.92417 32.8402 8.88955C32.4532 8.92435 32.1082 8.91548 31.7226 8.90844C30.4961 8.87785 30.6148 8.87544 31.7229 8.89227C32.202 8.89768 32.5853 8.90487 33.0661 8.83779C33.2702 8.80582 33.3796 8.7756 33.5877 8.81527C33.5804 8.81226 33.5723 8.81045 33.5647 8.80804C33.3699 8.77625 33.2559 8.80566 33.0656 8.83511C32.5798 8.90033 32.2058 8.88822 31.7231 8.8729C31.3952 8.86082 31.0697 8.84183 30.741 8.84285C30.5392 8.84826 30.5282 8.83864 30.7382 8.81208C31.0407 8.79122 31.3124 8.79231 31.6162 8.79784ZM31.5197 6.82144C31.2528 6.82781 31.0041 6.82623 30.738 6.81902C30.511 6.80117 30.3295 6.79564 30.1021 6.80603C29.6482 6.82911 29.1955 6.84691 28.7421 6.88153C29.1984 6.89349 29.6482 6.89986 30.1046 6.89301C30.3248 6.8888 30.5093 6.89901 30.7281 6.91854C31.0606 6.94108 31.3915 6.92642 31.7244 6.91975C32.1928 6.91134 32.5687 6.90029 33.038 6.96568C33.1412 6.98149 33.2412 6.99993 33.3456 7.00768C33.241 7.00065 33.1412 6.98215 33.0378 6.96652C32.5664 6.90282 32.1934 6.91237 31.7248 6.92096C31.3956 6.92848 31.0579 6.94482 30.7295 6.92577C30.4918 6.90774 30.5074 6.91193 30.7268 6.93333C31.0558 6.95917 31.3945 6.94494 31.7248 6.94121C32.1884 6.9364 32.5708 6.92876 33.034 6.99536C33.2509 7.03034 33.4158 7.06515 33.6343 7.01671C33.3898 7.06263 33.2717 7.03238 33.034 6.99536C32.5657 6.93063 32.1921 6.94355 31.725 6.95449C31.3922 6.96357 31.0594 6.98141 30.7263 6.96506C30.5056 6.94961 30.3273 6.9456 30.1066 6.95666C29.2474 7.00023 29.1278 7.01452 30.1071 6.9787C30.3248 6.97047 30.5041 6.97573 30.7213 6.9925C30.973 7.0068 31.2227 6.99872 31.4742 6.99066C31.2183 7.00346 30.9792 7.00732 30.7231 7.00684C30.5029 6.99488 30.3268 6.99524 30.1079 7.01165C29.7682 7.03899 29.7965 7.04526 30.1087 7.03835C30.3232 7.03354 30.5018 7.04073 30.7157 7.05834C31.0526 7.0792 31.3889 7.06316 31.7254 7.05475C32.1835 7.04495 32.5606 7.03157 33.0189 7.09257C33.3039 7.13428 33.4301 7.16262 33.7201 7.09074C33.8039 7.06874 33.8806 7.05042 33.9666 7.03648C33.8796 7.05042 33.8043 7.07258 33.7201 7.0914C33.4275 7.16388 33.3044 7.13613 33.0188 7.09382C32.5581 7.03401 32.1853 7.04758 31.7256 7.059C31.3889 7.06892 31.0554 7.08613 30.7185 7.06895C30.5024 7.0523 30.326 7.04758 30.1092 7.05684C29.5802 7.08052 29.0518 7.08876 28.523 7.10372C28.2306 7.11232 27.9071 7.10614 27.6198 7.15181C27.1598 7.22664 26.7866 7.19454 26.3286 7.17555C25.9661 7.16443 25.6083 7.18097 25.2451 7.16564C25.0013 7.1517 24.8248 7.14431 24.5796 7.16084C24.3136 7.17983 24.0512 7.19425 23.7851 7.20236C23.7181 7.20417 23.6497 7.20416 23.5834 7.20717C23.2642 7.21138 22.87 7.18987 22.5611 7.24048C22.1481 7.31344 21.8651 7.28568 21.4572 7.25394C20.85 7.21776 20.2821 7.27395 19.6686 7.21271C19.4116 7.1823 19.2933 7.18246 19.0358 7.20181C18.5458 7.23559 18.0887 7.22971 17.5995 7.22129L17.5243 7.2225C17.2978 6.8792 17.0615 6.56216 16.8224 6.28274C17.0814 6.28635 17.3418 6.27973 17.6003 6.28153C18.0585 6.28754 18.5036 6.29885 18.9629 6.27794C19.0141 6.27734 19.0682 6.27191 19.1202 6.27005C19.3606 6.26182 19.5319 6.27623 19.7723 6.3097C20.3465 6.38537 20.9378 6.34619 21.5262 6.39848C21.848 6.43358 22.0982 6.4733 22.4239 6.42871C22.8086 6.38117 23.197 6.41328 23.5834 6.42632C23.9049 6.43335 24.218 6.43172 24.5397 6.4221C24.8178 6.41351 25.0189 6.43233 25.2924 6.45824C25.6503 6.48865 26.0064 6.48714 26.3652 6.51304C26.7656 6.54718 27.1252 6.59564 27.5288 6.54785C27.8568 6.51173 28.1876 6.52754 28.5165 6.53373C29.0427 6.54082 29.5681 6.55492 30.0947 6.55336C30.3303 6.55216 30.5239 6.56703 30.7569 6.5936C31.0781 6.62383 31.4004 6.61716 31.7225 6.62203L32.5229 6.64719C32.254 6.63475 31.9909 6.63829 31.7225 6.64033C30.7702 6.65241 30.5302 6.66234 31.7226 6.64455C31.9905 6.64215 32.2546 6.6368 32.5229 6.64719C32.5575 6.649 32.5917 6.65117 32.6261 6.65358C32.3228 6.63597 32.0258 6.64281 31.7226 6.64719C31.717 6.64689 31.7097 6.64719 31.7041 6.64767C31.7099 6.64719 31.7165 6.64719 31.7226 6.64719C31.8209 6.6508 31.9247 6.64357 32.0243 6.64477C31.9245 6.64718 31.8224 6.65283 31.7226 6.65824C31.3243 6.68276 31.1656 6.70076 31.7226 6.70112C32.0893 6.70076 32.4251 6.69388 32.7939 6.72394C32.4255 6.69388 32.0896 6.70242 31.7226 6.70915C31.3999 6.71636 31.0683 6.73188 30.7458 6.71517C30.6494 6.70832 30.6555 6.71037 30.746 6.71939C31.0604 6.74631 31.4067 6.73013 31.7229 6.7261C32.202 6.72009 32.5854 6.71332 33.0661 6.78076C33.2611 6.81117 33.3744 6.84097 33.5733 6.80629C33.5658 6.8093 33.5574 6.81108 33.5498 6.81282C33.364 6.84041 33.2473 6.81163 33.0656 6.78344C32.5805 6.7175 32.2058 6.72965 31.7231 6.7436C31.3962 6.7552 31.0691 6.77454 30.7415 6.76847C30.3684 6.75302 30.347 6.76786 30.738 6.81C31.0071 6.82376 31.249 6.82752 31.5197 6.82247V6.82144ZM15.3622 4.68576C15.7158 4.67067 16.0693 4.65535 16.4239 4.62927C16.4348 4.62866 16.4461 4.62746 16.4572 4.62626C16.4463 4.62608 16.4344 4.62503 16.4239 4.62563C16.044 4.61788 15.6677 4.61067 15.2896 4.61085L15.2202 4.53957C15.8826 4.5061 15.9521 4.49602 15.2024 4.52109L15.1642 4.48187C15.3038 4.46859 15.2909 4.46342 15.1472 4.46474L15.1281 4.44522C15.5593 4.43032 15.99 4.42304 16.4214 4.41114C16.7133 4.40321 17.0382 4.40933 17.3251 4.3639C17.7854 4.28955 18.1576 4.32238 18.6159 4.34137C18.9777 4.35297 19.3356 4.33655 19.699 4.35212C19.9431 4.36655 20.1196 4.37366 20.3652 4.35755C20.6995 4.33417 21.026 4.31806 21.3609 4.31181C21.4618 4.3076 21.5689 4.31059 21.6703 4.31059C21.8955 4.31089 22.1634 4.31539 22.3845 4.2771C22.7967 4.20396 23.0792 4.23118 23.4868 4.26129C24.0937 4.29663 24.662 4.23859 25.2757 4.29798C25.533 4.32773 25.6513 4.3262 25.9083 4.30601C26.3971 4.26989 26.8563 4.27271 27.3446 4.27842C27.7563 4.26586 28.1725 4.28469 28.5826 4.31059C28.9062 4.34624 29.1609 4.34472 29.4844 4.33528C29.7177 4.32987 29.9468 4.33951 30.1802 4.34203C30.3783 4.33963 30.5257 4.24383 30.7897 4.23121C31.2077 4.24335 31.5393 4.42455 31.9432 4.42894C32.2871 4.4192 32.5242 4.4484 32.8593 4.50003C34.2977 4.7435 34.2948 4.94052 32.8325 5.05454C32.5432 5.06896 32.3003 5.08851 32.0133 5.13605C31.4822 5.19525 31.253 5.0597 30.8074 5.06679C30.6404 5.1451 30.3869 5.20684 30.2071 5.22042C29.984 5.23443 29.7573 5.23358 29.5326 5.24566C29.1599 5.26838 28.8735 5.27811 28.4981 5.24265C28.1166 5.21002 27.7276 5.22282 27.3445 5.21657C27.0821 5.21056 26.8201 5.20311 26.5576 5.20065C26.3625 5.19885 26.1744 5.20887 25.9801 5.21319C25.6667 5.23207 25.488 5.22732 25.1743 5.18429C24.5954 5.1103 24.01 5.15051 23.4196 5.09805C23.0957 5.06325 22.8453 5.02406 22.5182 5.06914C22.1341 5.11656 21.7464 5.08477 21.3609 5.07215C21.039 5.0656 20.7259 5.06796 20.4041 5.07758C20.1263 5.08683 19.9259 5.06795 19.6524 5.04276C19.2946 5.01283 18.9382 5.01452 18.5797 4.98862C18.1775 4.95502 17.8194 4.90693 17.4143 4.95549C17.0868 4.99179 16.7565 4.97618 16.4276 4.97083C16.1583 4.96722 15.8892 4.96223 15.62 4.95802C15.5345 4.86655 15.4484 4.77573 15.3622 4.68576ZM13.0275 2.67792C13.0952 2.67792 13.166 2.6797 13.2403 2.6821C13.8128 2.70632 14.3828 2.72185 14.9543 2.76068C14.9664 2.76128 14.9783 2.76248 14.9902 2.76368C14.979 2.7638 14.9659 2.76489 14.9543 2.76489C14.3798 2.77535 13.8125 2.78592 13.2377 2.77432L13.1615 2.7737L13.2445 2.83338C14.4352 2.88549 14.6232 2.90253 13.2795 2.85847L13.3219 2.88954C13.8259 2.9232 13.7986 2.93189 13.3672 2.92216L13.3917 2.94013C13.9122 2.95864 14.4313 2.96621 14.9518 2.97997C15.2686 2.98772 15.6205 2.98179 15.9313 3.02674C16.4307 3.10121 16.8336 3.06856 17.3301 3.04927C17.7227 3.03779 18.1103 3.05407 18.5042 3.03863C18.769 3.02438 18.9608 3.01702 19.2269 3.03265C19.5893 3.05621 19.9431 3.07199 20.3063 3.07854C20.4154 3.08275 20.5317 3.07975 20.6416 3.07975C20.8855 3.07927 21.1762 3.07435 21.4155 3.11306C21.8623 3.18584 22.1684 3.15898 22.6102 3.12839C23.2683 3.09341 23.8842 3.15104 24.5494 3.09208C24.8278 3.06226 24.9567 3.06384 25.2351 3.08434C25.7648 3.12016 26.2627 3.11708 26.7921 3.11155C27.2381 3.12484 27.6892 3.10548 28.1338 3.07993C28.4844 3.04399 28.7604 3.04551 29.1111 3.05458C29.3646 3.05999 29.6123 3.05036 29.8653 3.04802C30.0801 3.05042 30.2398 3.14636 30.5263 3.15899C30.9788 3.14691 31.3385 2.96544 31.7764 2.96111C32.1492 2.97103 32.4057 2.94177 32.7694 2.88984C34.329 2.64654 34.3252 2.44917 32.7406 2.3357C32.4267 2.32103 32.164 2.30175 31.8525 2.25397C31.2767 2.19464 31.0284 2.33029 30.5453 2.32326C30.3644 2.24471 30.0896 2.18302 29.8949 2.16937C29.6523 2.15579 29.4071 2.15677 29.1635 2.14468C28.7593 2.12197 28.449 2.11223 28.0423 2.14769C27.6282 2.18003 27.2069 2.1674 26.7916 2.17377C26.5073 2.17979 26.2232 2.18706 25.9389 2.18977C25.7271 2.19157 25.5231 2.18118 25.3127 2.17715C24.9732 2.15816 24.7795 2.16302 24.4394 2.20587C23.8121 2.28004 23.177 2.23983 22.5372 2.2923C22.1864 2.3271 21.9149 2.36646 21.5605 2.32102C21.1441 2.27348 20.7238 2.30493 20.3063 2.31743C19.9571 2.32428 19.6176 2.32224 19.2686 2.31262C18.9674 2.30349 18.7503 2.32233 18.454 2.34751C18.0663 2.3778 17.68 2.37579 17.2915 2.40169C16.8553 2.43517 16.4671 2.48325 16.0283 2.43463C15.673 2.39851 15.3151 2.41414 14.9586 2.41966C14.3881 2.42622 13.819 2.43983 13.2484 2.43731C13.0558 2.43671 12.89 2.44424 12.7116 2.45969C12.7937 2.51534 12.8755 2.57201 12.9575 2.62916C13.0249 2.63037 13.0328 2.63554 12.9792 2.64432L13.0275 2.67792ZM30.8372 0.566629C30.5623 0.561821 30.307 0.566274 30.0334 0.572645C29.7573 0.591277 29.5342 0.597172 29.2572 0.587796C28.6125 0.563394 27.9708 0.548409 27.3271 0.509403C27.3134 0.508201 27.2996 0.507597 27.2864 0.506395C27.2993 0.505914 27.314 0.505221 27.3271 0.505221C27.974 0.494763 28.6127 0.484157 29.2604 0.495756C29.5294 0.500565 29.7543 0.490965 30.0217 0.471912C30.4278 0.449915 30.8312 0.464691 31.2378 0.470702C31.8093 0.479296 32.2685 0.489568 32.8416 0.424297C32.9544 0.410173 33.0666 0.393764 33.1806 0.384568C33.0656 0.393283 32.9551 0.409519 32.8414 0.423343C32.2659 0.487352 31.8103 0.478156 31.2379 0.469381C30.8354 0.462349 30.425 0.446539 30.0234 0.466373C29.4488 0.501473 29.5681 0.489572 30.0197 0.455735C30.4233 0.430852 30.8333 0.444701 31.2379 0.448728C31.8034 0.453536 32.2717 0.461317 32.836 0.394363C33.0868 0.361607 33.2905 0.326342 33.544 0.369015C33.2601 0.329167 33.1115 0.359383 32.836 0.394363C32.2652 0.459274 31.8087 0.447381 31.2381 0.436622C30.831 0.428388 30.4269 0.410913 30.0195 0.427562C29.7503 0.443489 29.5321 0.447857 29.2623 0.43776C27.8976 0.384329 27.6911 0.367337 29.2633 0.413255C29.5292 0.42197 29.748 0.416254 30.0139 0.399425C30.2689 0.387164 30.5211 0.391211 30.7764 0.397041C30.5172 0.387965 30.2746 0.387935 30.0161 0.388897C29.747 0.401519 29.5321 0.401727 29.2643 0.387723C28.5351 0.345351 28.6089 0.336798 29.2655 0.351883C29.5279 0.358134 29.7447 0.350671 30.0065 0.333542C30.4174 0.312866 30.8279 0.328759 31.2391 0.337173C31.7981 0.34709 32.2582 0.359872 32.818 0.299169C33.1664 0.256677 33.319 0.228557 33.6741 0.30038C33.7763 0.322557 33.8701 0.340695 33.9747 0.354158C33.8685 0.340695 33.7771 0.317864 33.6742 0.299352C33.3155 0.22759 33.1672 0.255123 32.8179 0.297555C32.2561 0.357777 31.7997 0.344297 31.2395 0.333358C30.8289 0.323802 30.4208 0.307174 30.0099 0.324664C29.7455 0.341132 29.5314 0.345995 29.2661 0.3371C28.6201 0.31402 27.9757 0.306624 27.3294 0.291539C26.9733 0.283786 26.5768 0.289724 26.2267 0.244767C25.6644 0.1703 25.2103 0.202887 24.6514 0.22206C24.2092 0.23354 23.7725 0.217242 23.3291 0.232808C23.0312 0.246932 22.8152 0.254525 22.5152 0.238237C22.1074 0.214677 21.7089 0.198677 21.3 0.192126C21.1771 0.187919 21.0457 0.190916 20.9224 0.190916C20.6477 0.191396 20.3204 0.19635 20.0505 0.157644C19.5472 0.0846793 19.2026 0.111715 18.705 0.142126C17.964 0.177467 17.2705 0.119459 16.5212 0.17848C16.2074 0.208411 16.0632 0.206561 15.7493 0.186367C15.1526 0.150366 14.5921 0.153441 13.9956 0.159331C13.4935 0.146229 12.9852 0.165312 12.4846 0.190916C12.0899 0.226857 11.7787 0.225373 11.384 0.216117C11.0987 0.210708 10.8198 0.219712 10.5348 0.222537C10.2927 0.220133 10.1131 0.124521 9.7905 0.111899C9.51696 0.11827 9.27353 0.173251 9.03081 0.223858C9.55766 0.493357 10.0846 0.794121 10.5996 1.10551C10.8404 1.11489 11.0837 1.11544 11.325 1.12583C11.78 1.14873 12.13 1.15829 12.5882 1.12283C13.0538 1.09037 13.5288 1.10311 13.9961 1.09638C14.3161 1.09037 14.6361 1.08346 14.9566 1.08046C15.1949 1.07865 15.4244 1.08934 15.6615 1.09337C16.044 1.11206 16.2619 1.10714 16.6453 1.06446C17.3512 0.990176 18.0664 1.03069 18.7874 0.978036C19.1822 0.943417 19.4878 0.904058 19.8875 0.949496C20.3564 0.996736 20.8294 0.965125 21.3 0.952504C21.693 0.945772 22.0754 0.94828 22.4679 0.957896C22.8075 0.966852 23.0515 0.94815 23.3855 0.922607C23.8223 0.892676 24.2575 0.894552 24.6954 0.868829C25.1857 0.835171 25.6234 0.787081 26.1173 0.835703C26.5176 0.871464 26.9205 0.856019 27.322 0.85067C27.9648 0.844119 28.6056 0.830315 29.2482 0.832659C29.536 0.834462 29.7721 0.819531 30.0564 0.793627C30.4487 0.763576 30.8416 0.770616 31.2348 0.765748L32.1282 0.746269C31.8297 0.754984 31.5338 0.752304 31.2348 0.7499C30.8398 0.746895 30.4452 0.734924 30.0505 0.753495C30.0273 0.754697 30.0336 0.754088 30.052 0.752285C30.4234 0.723676 30.861 0.741632 31.2351 0.745718C31.5338 0.748123 31.8297 0.75294 32.1282 0.746269C32.1721 0.744466 32.2161 0.742716 32.2599 0.740913C31.9161 0.753895 31.5785 0.747647 31.2351 0.743921C31.1911 0.746926 31.1287 0.742739 31.083 0.741537C31.1324 0.742138 31.1868 0.745123 31.2351 0.743921C31.3169 0.741517 31.4036 0.746334 31.4867 0.745132C31.4072 0.74393 31.3104 0.733463 31.2351 0.736107C30.6095 0.708761 30.3584 0.68484 31.2358 0.687905C31.6566 0.689708 32.0511 0.69617 32.4732 0.671287C32.0506 0.69617 31.6578 0.68792 31.2358 0.681669C30.8416 0.675118 30.4367 0.659021 30.0431 0.678074C29.6681 0.700913 29.6995 0.696559 30.0429 0.670114C30.4359 0.646073 30.842 0.660394 31.236 0.664721C31.8211 0.67013 32.2889 0.677648 32.8757 0.609732C33.1021 0.580823 33.2417 0.551436 33.4735 0.580826C33.4636 0.578422 33.4535 0.576606 33.4437 0.574443C33.2286 0.552085 33.0855 0.580639 32.8752 0.607385C32.2836 0.673617 31.8249 0.662193 31.2361 0.64891C30.838 0.638813 30.4367 0.618634 30.0389 0.628551C29.3548 0.655477 29.3186 0.635632 30.033 0.578295C30.3088 0.568858 30.5593 0.562602 30.8372 0.566629ZM31.926 6.64672C31.9551 6.64624 32.0635 6.64537 32.0243 6.64477C33.2192 6.64537 33.3959 6.63524 31.926 6.64672ZM32.0082 8.97172C32.0367 8.97221 32.1372 8.9734 32.1014 8.974C33.3771 8.96504 33.1689 8.97593 32.0082 8.97172ZM22.3652 27.4026C22.3645 27.4026 22.3517 27.405 22.3554 27.4029C22.3471 27.4059 22.3392 27.4089 22.3316 27.4116C22.2838 27.4291 22.3581 27.4041 22.3652 27.4026ZM26.8249 21.6464C26.5141 21.1792 26.0877 20.676 25.8451 20.1785C25.6477 19.774 25.4667 19.3644 25.2717 18.9603C25.4971 19.3502 25.694 19.7501 25.906 20.1471C26.3779 20.9474 26.9086 21.4988 27.3283 22.3616C27.3615 22.4349 27.3938 22.5082 27.4261 22.5805L27.321 22.7266C27.277 22.6281 27.2339 22.5289 27.1892 22.4285C26.825 21.7155 25.3525 19.5526 26.8249 21.6464ZM28.5917 22.2112C28.6899 22.086 28.7879 21.9609 28.8862 21.836C29.0927 21.5739 29.2842 21.3542 29.5026 21.1346C29.6326 21.2973 29.8461 21.4841 30.1504 21.7987C30.2113 21.8619 30.2696 21.8981 30.3522 21.9242C30.4362 21.947 30.5042 21.9483 30.5886 21.9277C30.6088 21.9259 30.7392 21.875 30.7658 21.864C30.9224 21.8001 31.0296 21.7497 31.1679 21.6443C31.846 21.0764 31.5639 21.2806 31.8914 21.3341C32.1461 21.3365 32.9235 21.2496 33.1851 21.188C32.6738 21.2133 32.7401 21.2213 33.1851 21.188C33.1924 21.1878 33.1993 21.1876 33.2061 21.1874C33.1384 21.1898 33.0709 21.1928 33.0036 21.1957C33.0257 21.1945 33.0535 21.1939 33.0757 21.1908C33.3734 21.176 33.2695 21.1804 33.0603 21.1902C32.7279 21.1785 33.1146 21.1412 33.2367 21.1371C32.3528 21.1577 32.9359 21.1238 33.3668 21.1138C33.3658 21.1132 33.3647 21.1126 33.3633 21.112C33.2478 21.1144 32.1995 21.094 32.9494 21.0508C32.738 21.0578 32.4759 21.07 32.2708 21.0154C32.6187 20.962 32.9746 20.964 33.3251 20.9532C32.334 20.9726 32.7773 20.94 33.3615 20.9258C33.0079 20.9359 31.7945 20.9052 32.9303 20.907C31.8894 20.8386 33.1927 20.8412 33.4016 20.8486C33.2686 20.84 32.0188 20.8551 32.0183 20.7915C32.0183 20.7806 31.5098 20.6508 31.4616 20.6387C31.4056 20.6249 31.3204 20.6339 31.2648 20.6506C31.2371 20.6589 31.2131 20.6689 31.1872 20.6823C31.0959 20.7334 31.0402 20.7937 30.9939 20.8884C30.9431 20.9819 30.8976 21.0609 30.8062 21.1166C30.6071 21.229 30.1087 21.0021 29.7673 20.8803L29.7937 20.8561C30.1893 20.5022 30.4478 20.2724 30.6725 19.7695C31.4519 18.0034 31.5962 18.5964 32.1802 19.4383C32.737 20.1902 33.1702 20.3415 33.7618 20.9432L34.13 21.3282C34.0125 21.1948 33.8927 21.0637 33.774 20.9319C33.4485 20.5816 33.2207 20.3336 33.7769 20.9295C33.8953 21.062 34.0138 21.1935 34.13 21.3282C34.1426 21.3431 34.1553 21.3577 34.1682 21.3727C34.0455 21.2279 33.9191 21.0872 33.7931 20.9457C33.8394 20.9966 33.8854 21.0502 33.9326 21.0997C34.4058 21.6332 34.429 21.6565 33.8991 21.06C33.8609 21.0143 33.8233 20.9664 33.7863 20.9205C33.6443 20.7421 33.5874 20.6617 33.8114 20.8971C33.9678 21.067 34.1194 21.2364 34.2663 21.4151C34.1205 21.2364 33.9691 21.0654 33.817 20.892C33.3402 20.3751 33.1551 20.1595 33.8273 20.8829C34.0959 21.1834 34.3294 21.4453 34.5646 21.7766C34.563 21.7718 34.5602 21.7679 34.5579 21.7636C34.3275 21.4416 34.0934 21.1711 33.8386 20.8719C33.4702 20.4559 32.9271 19.857 33.8099 20.7469C33.4353 20.3433 32.9747 20.04 32.6627 19.5807C33.0805 20.0196 33.5257 20.3068 33.9486 20.7701C34.1799 21.0328 34.396 21.2794 34.6063 21.5608C34.3965 21.2772 34.1814 21.0328 33.9494 20.7691C33.4056 20.1841 33.1929 19.9327 33.9617 20.7577C34.2349 21.0623 34.4852 21.3403 34.7215 21.6758C34.4814 21.3394 34.2397 21.0603 33.9706 20.7496C33.2812 20.0065 32.3001 19.0499 33.8898 20.6227C32.7342 19.3996 33.2958 19.8949 34.0326 20.6923C34.372 21.0817 34.6287 21.3878 34.9131 21.8234C34.6271 21.3838 34.3744 21.0817 34.0357 20.6891C33.5098 20.1057 33.0363 19.8376 32.592 19.1605C32.3718 18.8078 32.2149 18.564 31.9445 18.2429C31.9043 18.1989 31.8679 18.1713 31.814 18.1453C31.7595 18.1215 31.7152 18.1116 31.6559 18.1101C31.5962 18.1105 31.5513 18.1193 31.4966 18.1422C31.442 18.1671 31.4056 18.1935 31.3639 18.2369C31.3639 18.2369 31.3584 18.2441 31.3568 18.2446C30.8931 18.7017 30.6393 18.6742 30.2463 19.3077C30.2009 19.3868 30.1612 19.4662 30.1226 19.5497C29.9385 19.9082 29.6891 20.0938 29.386 20.342C28.8319 20.8074 28.4958 21.1906 28.0428 21.7464C27.8549 21.9848 27.6779 22.2288 27.503 22.4732C27.4793 22.4194 27.456 22.3658 27.4317 22.3115C27.014 21.4433 26.4832 20.8838 26.0286 20.0734C25.6531 19.3273 25.3999 18.7251 24.9088 18.0304C24.4665 17.4433 24.3462 17.306 24.0483 16.6165C23.8749 16.211 23.7145 15.9655 23.4958 15.5857C23.4551 15.5193 23.4136 15.4779 23.3477 15.438C23.2805 15.401 23.2243 15.3852 23.1479 15.3833C23.0711 15.3839 23.0143 15.3988 22.9461 15.4348C22.8796 15.4743 22.8379 15.5148 22.7957 15.5804C22.7348 15.6779 22.6734 15.7749 22.6125 15.8727C22.4505 16.1242 22.3805 16.3028 22.2253 16.5577C22.1492 16.6833 22.0767 16.8206 22.0069 16.9501C21.8374 17.2647 21.6759 17.5846 21.5002 17.8952C21.4039 18.0654 21.2962 18.2124 21.1896 18.3737C20.7418 19.0044 20.3033 19.6158 19.8918 20.273C19.5479 20.795 19.242 21.3453 18.916 21.8824C18.6491 22.3338 18.5279 22.5754 18.2956 23.0411C18.029 23.5485 18.0816 23.3814 17.7899 23.8683C17.7712 23.9021 17.7273 23.9683 17.7151 23.9999C17.4325 24.4939 17.1184 25.0355 16.8298 25.5264C14.9473 28.4751 15.4814 28.0841 17.302 25.8219C17.643 25.3501 17.9665 24.8816 18.279 24.3896C18.3052 24.3493 18.3317 24.3 18.3588 24.262C18.6889 23.7555 18.6237 23.9688 18.9259 23.4098C19.1509 22.9688 19.2966 22.6597 19.5451 22.2293C19.5719 22.1787 19.6011 22.1277 19.6304 22.0771C19.8605 22.0232 20.2197 21.8736 20.7152 21.6054C21.0496 21.4151 21.3073 21.2298 21.5978 20.9764C22.6451 20.0523 21.6185 20.1082 23.0256 21.2047C23.2622 21.3851 23.3963 21.2192 23.4551 20.9848C23.7249 20.1605 24.2641 20.8359 24.7761 21.215C24.4028 20.935 24.3886 20.8534 24.8521 21.2108C24.2668 20.7587 24.4369 20.8154 24.5307 20.8703C24.2582 20.6992 23.9655 20.5598 23.7 20.3777C26.2712 21.3291 23.388 19.9184 25.1979 21.2138C24.8018 20.9236 23.1733 19.871 24.5888 20.7368C23.4303 19.9433 25.0238 20.9858 25.333 21.2175C24.7291 20.7567 24.3164 20.4878 23.629 20.1336C23.5798 20.1111 23.5397 20.1017 23.4854 20.0997C23.4318 20.0991 23.3905 20.1067 23.3403 20.1263C23.2903 20.1472 23.2552 20.1713 23.2167 20.2098C23.179 20.2495 23.156 20.2856 23.1358 20.3365C23.0724 20.4823 23.0237 20.4171 22.827 20.1943C22.6969 20.0477 22.5532 19.9369 22.4024 19.8127C22.3129 19.7483 22.2303 19.7212 22.1201 19.7217C22.0097 19.7271 21.9289 19.758 21.8417 19.8281C21.3182 20.2506 20.8204 20.6506 20.2704 21.0381L20.2211 21.0759L20.4496 20.6879C20.8348 20.0314 21.2728 19.4292 21.6806 18.792C21.8022 18.6106 21.9092 18.4361 22.0147 18.2442C22.2498 17.794 22.46 17.3349 22.6979 16.886C23.2807 15.7468 23.0462 15.6989 23.5382 16.846C23.8745 17.5762 24.028 17.7333 24.5095 18.3411C24.9995 18.9933 25.2687 19.5805 25.6515 20.2855C26.1241 21.0601 26.7114 21.6628 27.1143 22.4643C27.1577 22.5473 27.2463 22.7405 27.2452 22.738C27.2042 22.648 27.1641 22.5488 27.1196 22.4616C26.0541 20.4157 26.3031 20.923 27.1209 22.4611C27.1651 22.548 27.2048 22.648 27.2452 22.738L27.2718 22.7951C27.0423 23.1121 26.8092 23.4246 26.5504 23.721C26.3842 23.9158 26.2455 24.0883 26.1322 24.2368C26.0109 24.0599 25.8956 23.881 25.7837 23.6855C25.5591 23.279 25.3381 22.891 25.0915 22.4976C25.0106 22.3589 24.9135 22.2198 24.8278 22.0826C24.7968 22.0337 24.7655 22.0028 24.7157 21.974C24.6653 21.947 24.6229 21.9367 24.566 21.9357C24.509 21.9369 24.4669 21.9485 24.4171 21.9761C24.3683 22.005 24.3366 22.0369 24.3067 22.0855C24.0312 22.5625 23.8228 22.9397 23.614 23.4557C23.3128 24.2053 23.1363 24.5292 22.6566 25.1756C22.1024 25.9395 21.6319 26.7206 21.1524 27.5325C20.8247 28.105 20.5287 28.6961 20.1609 29.2436C20.1592 29.2461 20.1597 29.2454 20.1609 29.2436C20.1607 29.2436 20.161 29.2431 20.1609 29.2436C21.2787 27.5437 21.7138 26.9023 20.1609 29.2436C20.1607 29.2436 20.161 29.2431 20.1609 29.2436C20.1358 29.2816 20.1066 29.3206 20.0808 29.3578C20.1041 29.3241 20.1415 29.277 20.1609 29.2436C20.3434 28.986 20.5015 28.7315 20.6619 28.4592C20.604 28.5592 20.5439 28.6574 20.4855 28.7571C21.3016 27.4698 20.5634 28.7283 20.2006 29.2731C20.1373 29.3684 20.0654 29.463 19.9998 29.5582C20.0662 29.4625 20.1329 29.3675 20.2006 29.2731C20.5929 28.7083 20.8813 28.1604 21.2381 27.5873C21.3182 27.4615 21.315 27.4696 21.2424 27.5903C20.8947 28.1693 20.6051 28.7229 20.2158 29.2844C19.9707 29.6293 19.7779 29.9149 19.5822 30.2922C19.587 30.2853 19.5913 30.2777 19.5959 30.2702C19.7882 29.9018 19.9791 29.623 20.2199 29.2875C20.6109 28.7325 20.9111 28.1743 21.2757 27.6115C21.5313 27.2295 21.5606 27.2058 21.3073 27.6313C21.1663 27.8697 21.0302 28.1099 20.8928 28.3502C21.0266 28.119 21.1668 27.8548 21.3141 27.6355C21.7332 26.9684 22.1424 26.3346 22.6309 25.7152C22.197 26.3613 21.7933 27.0187 21.3855 27.6809C21.0349 28.2616 20.7392 28.8209 20.3457 29.3798C20.1704 29.6431 19.9959 29.8708 19.8388 30.1502C19.9962 29.8764 20.1636 29.6365 20.3467 29.3805C20.7417 28.813 21.0326 28.2612 21.3907 27.6834C21.5553 27.424 21.5408 27.451 21.3968 27.6882C21.0474 28.2704 20.756 28.8312 20.3645 29.3936C20.1254 29.7312 19.9249 30.0254 19.7385 30.3948C19.9313 30.0172 20.1213 29.7386 20.3672 29.3958C20.7604 28.8393 21.0619 28.2759 21.4191 27.7018C22.4667 26.062 22.5364 25.9821 21.4388 27.7149C21.3018 27.9338 21.1724 28.1551 21.042 28.3774C21.1699 28.1662 21.3073 27.92 21.4484 27.7203C22.2174 26.5537 22.1226 26.7248 21.4856 27.7448C21.1306 28.3253 20.8325 28.8854 20.4357 29.4459C20.0814 29.9385 19.89 30.2404 19.6333 30.7903C19.8944 30.2365 20.0816 29.9396 20.4372 29.447C20.834 28.8882 21.1352 28.3269 21.4934 27.7486C21.9879 26.9681 22.4732 26.2107 23.0408 25.4811C23.566 24.8126 23.783 24.4589 24.1235 23.6732C24.8743 21.9557 24.2916 22.0514 25.1657 23.7379C25.2135 23.8308 25.2608 23.9294 25.3111 24.0203C25.5075 24.3875 25.711 24.6988 25.9442 25.0413C26.2814 25.5391 26.3551 25.7248 26.5662 26.2811C26.6561 26.5091 26.734 26.6904 26.8293 26.8585C26.7838 26.8161 26.7367 26.7748 26.6867 26.7334C26.5343 26.6102 26.3854 26.5061 26.2222 26.3965C26.067 26.2969 25.5201 25.9416 25.3149 25.9493C25.0273 25.9745 24.4235 26.7948 24.2238 27.0344C24.0692 27.1965 24.0629 27.0865 23.9463 26.9896C23.934 26.9797 23.9122 26.9644 23.8984 26.9552C23.8725 26.9386 23.8493 26.9304 23.819 26.9256C23.7776 26.9214 23.7444 26.928 23.7078 26.9481C23.5905 27.0384 23.6433 27.0428 23.451 27.147C23.061 27.3395 23.0216 27.2216 22.7383 27.281C23.267 27.284 23.4047 27.3 22.7383 27.281L22.7189 27.2816C22.5316 27.2742 22.5791 27.2762 22.7148 27.2816L22.7039 27.2821L22.7174 27.2819L22.9175 27.2903C23.3398 27.3379 22.7646 27.3327 22.6488 27.3331C23.9113 27.364 22.8728 27.2966 22.3618 27.4012C22.3652 27.4015 22.3686 27.401 22.3714 27.4006C22.7095 27.3377 23.965 27.4012 23.0381 27.44C23.2258 27.4443 23.3699 27.4185 23.5445 27.3468C23.6578 27.2941 23.8729 27.1497 23.839 27.1897C23.822 27.1995 23.8046 27.2028 23.7851 27.2011C23.776 27.2029 23.7581 27.1921 23.7502 27.1904C23.7399 27.1874 23.7646 27.2087 23.7643 27.21C23.7643 27.2106 23.7765 27.2275 23.7776 27.2294C23.7712 27.2246 23.7649 27.2208 23.7586 27.2169C23.7581 27.2166 23.7315 27.1975 23.7409 27.2053C23.7533 27.2141 23.7677 27.2182 23.7824 27.2205C23.8076 27.2235 23.827 27.22 23.8495 27.2085C23.911 27.1737 23.7318 27.3304 23.5748 27.4116C23.0906 27.6309 22.9405 27.459 22.4866 27.5362C24.376 27.4569 22.6196 27.5211 22.408 27.5834C22.8849 27.4624 23.0736 27.6682 23.5995 27.4634C23.8854 27.3251 24.149 27.2006 23.607 27.4797C23.4108 27.5665 23.2668 27.591 23.0526 27.5845C23.2572 27.6031 23.4285 27.5784 23.6205 27.5079C23.7553 27.4523 23.7555 27.4584 23.6277 27.5242C23.0765 27.7815 22.8402 27.5145 22.3162 27.6968C22.8602 27.5187 23.0214 27.779 23.6354 27.5408C23.7382 27.4911 24.0973 27.2399 23.932 27.361C23.8761 27.3916 23.8247 27.4012 23.761 27.3945C23.7168 27.3881 23.6852 27.3774 23.6473 27.3536C23.6249 27.3387 23.6228 27.3361 23.6439 27.3554C23.6373 27.3655 23.8296 27.4985 23.84 27.5068C24.3471 27.8499 24.2546 27.6779 24.6186 27.4151C25.6768 26.3815 24.9396 26.4397 25.6753 26.9968C26.025 27.262 26.2919 27.4474 26.5939 27.7549C27.4047 28.4124 27.9814 28.6996 28.1355 28.6072C28.3094 28.8909 28.4848 29.1728 28.663 29.4543C28.9717 29.9576 29.1771 30.4371 29.4448 30.9564C29.8308 31.6545 29.6141 31.0423 29.9873 31.5696C30.0421 31.6508 30.097 31.7324 30.1523 31.8135C30.5128 32.3241 30.7902 32.7878 31.1696 33.281C32.0966 34.5471 32.2111 34.4051 31.5613 33.0278C31.2722 32.4778 30.9255 31.9749 30.6073 31.4422C30.5618 31.3661 30.5024 31.2691 30.4632 31.1916C30.1426 30.6793 30.3018 31.1462 30.0159 30.6022C29.7439 30.0395 29.5589 29.5568 29.2258 29.0125C28.9925 28.6436 28.7586 28.2747 28.5259 27.9057C28.5036 27.8702 28.4818 27.8341 28.4593 27.7989C28.1942 27.3807 28.0357 27.209 27.6797 26.8576C27.3953 26.5723 27.295 26.364 27.1388 25.9934C26.8975 25.3929 26.7857 25.1608 26.4103 24.6309C27.7351 23.6488 27.7451 23.334 28.5917 22.2112ZM27.4269 22.5793C27.3946 22.507 27.3623 22.4342 27.3294 22.3611C26.0465 20.0235 26.2106 20.1407 27.348 22.3521C27.3794 22.4216 27.4101 22.4905 27.4413 22.5591L27.4269 22.5793ZM27.4441 22.5551C27.4143 22.487 27.3837 22.4186 27.3529 22.3498C26.9306 21.4825 26.3976 20.9223 25.9557 20.115C25.6098 19.4171 25.5959 19.372 25.9727 20.1107C26.2519 20.6136 26.5912 21.0459 26.9121 21.5198C26.6283 21.079 26.2143 20.5649 26.0001 20.0898C25.9508 19.9768 25.9639 19.9972 26.014 20.0885C26.4833 20.891 26.9999 21.4369 27.4292 22.3132C27.4537 22.3675 27.4773 22.4218 27.5012 22.4752L27.4441 22.5551ZM27.2718 22.7951C27.2217 22.6837 27.1742 22.5685 27.1209 22.4611C27.0253 22.2664 26.9361 22.0929 26.8208 21.9085C26.8848 22.01 26.9427 22.1119 27.0012 22.2163C26.4478 21.158 26.6268 21.4082 27.1653 22.44C27.2159 22.539 27.2608 22.6429 27.3059 22.7468L27.3173 22.7316C27.2725 22.6323 27.2281 22.5325 27.1821 22.4316C25.9632 20.0803 26.1681 20.5818 27.1671 22.4392C27.2164 22.5408 27.2608 22.6439 27.3057 22.7474L27.2718 22.7951ZM33.8993 21.0607C33.9166 21.0798 33.9452 21.1128 33.9326 21.0997L33.8993 21.0607ZM33.0757 21.1908L33.0628 21.1906C33.0709 21.1904 33.0805 21.1901 33.0757 21.1908ZM33.3658 21.1119C33.3663 21.1125 33.3704 21.1131 33.3693 21.1137C33.3719 21.1134 33.3746 21.1131 33.3771 21.1125C33.3931 21.1095 33.3676 21.1119 33.3658 21.1119ZM22.7199 27.2815C22.8086 27.2803 22.8968 27.2869 22.9854 27.2907C22.9564 27.2901 22.9245 27.2871 22.8955 27.2877L22.7199 27.2815ZM22.8955 27.2877L22.9154 27.29C22.9036 27.2895 22.888 27.2883 22.8955 27.2877ZM75.5362 30.3294C76.0204 30.3294 76.4133 30.7283 76.4133 31.2199C76.4133 31.7115 76.0204 32.1108 75.5362 32.1108C75.0524 32.1108 74.6595 31.7115 74.6595 31.2199C74.6595 30.7283 75.0524 30.3294 75.5362 30.3294ZM122.711 30.3294C123.195 30.3294 123.588 30.7283 123.588 31.2199C123.588 31.7115 123.195 32.1108 122.711 32.1108C122.227 32.1108 121.835 31.7115 121.835 31.2199C121.835 30.7283 122.227 30.3294 122.711 30.3294ZM161.584 33.0935H160.885V29.6201H161.571V30.11C161.672 29.9296 161.818 29.7877 162.008 29.6843C162.199 29.5814 162.414 29.5299 162.655 29.5299C163.032 29.5299 163.349 29.6544 163.607 29.9035C163.869 30.1572 164 30.5158 164 30.98V33.0935H163.296V31.1796C163.296 30.866 163.222 30.6224 163.074 30.4483C162.926 30.2741 162.727 30.1873 162.478 30.1873C162.215 30.1873 162.001 30.2806 161.834 30.4676C161.667 30.6543 161.584 30.8961 161.584 31.1923V33.0935ZM158.227 31.3534C158.227 31.0356 158.119 30.7629 157.904 30.5352C157.696 30.3032 157.437 30.1873 157.124 30.1873C156.815 30.1873 156.552 30.3032 156.337 30.5352C156.126 30.7629 156.02 31.0356 156.02 31.3534C156.02 31.6758 156.126 31.9509 156.337 32.1783C156.552 32.4062 156.815 32.52 157.124 32.52C157.432 32.52 157.692 32.4062 157.904 32.1783C158.119 31.9509 158.227 31.6758 158.227 31.3534ZM155.316 31.3534C155.316 30.851 155.485 30.4213 155.823 30.0647C156.166 29.7081 156.599 29.5299 157.124 29.5299C157.648 29.5299 158.079 29.7081 158.418 30.0647C158.76 30.417 158.931 30.8467 158.931 31.3534C158.931 31.869 158.76 32.3029 158.418 32.6553C158.084 33.0075 157.652 33.1839 157.124 33.1839C156.599 33.1839 156.166 33.0075 155.823 32.6553C155.485 32.2987 155.316 31.8648 155.316 31.3534ZM153.361 29.6201V33.0935H152.663V29.6201H153.361ZM153.025 29.1626C152.89 29.1626 152.776 29.1165 152.682 29.024C152.59 28.9314 152.543 28.8166 152.543 28.6791C152.543 28.5461 152.59 28.4343 152.682 28.3443C152.776 28.2539 152.89 28.209 153.025 28.209C153.156 28.209 153.266 28.2539 153.355 28.3443C153.444 28.4343 153.488 28.5461 153.488 28.6791C153.488 28.8166 153.444 28.9314 153.355 29.024C153.266 29.1165 153.156 29.1626 153.025 29.1626ZM150.69 32.3331L150.931 32.8872C150.677 33.0807 150.362 33.1774 149.986 33.1774C149.618 33.1774 149.338 33.0635 149.149 32.8359C148.958 32.6081 148.863 32.2794 148.863 31.8497V30.226H148.273V29.6201H148.869V28.3892H149.561V29.6201H150.741V30.226H149.561V31.8626C149.561 32.3052 149.736 32.5264 150.087 32.5264C150.273 32.5264 150.474 32.4622 150.69 32.3331ZM146.465 29.6201V33.0935H145.767V29.6201H146.465ZM146.128 29.1626C145.993 29.1626 145.879 29.1165 145.786 29.024C145.693 28.9314 145.646 28.8166 145.646 28.6791C145.646 28.5461 145.693 28.4343 145.786 28.3443C145.879 28.2539 145.993 28.209 146.128 28.209C146.26 28.209 146.37 28.2539 146.458 28.3443C146.547 28.4343 146.591 28.5461 146.591 28.6791C146.591 28.8166 146.547 28.9314 146.458 29.024C146.37 29.1165 146.26 29.1626 146.128 29.1626ZM142.95 31.3534C142.95 31.0269 142.848 30.7523 142.645 30.5286C142.442 30.3008 142.178 30.1873 141.853 30.1873C141.527 30.1873 141.262 30.3008 141.06 30.5286C140.857 30.7523 140.755 31.0269 140.755 31.3534C140.755 31.6886 140.857 31.968 141.06 32.1915C141.262 32.4147 141.527 32.5264 141.853 32.5264C142.178 32.5264 142.442 32.4147 142.645 32.1915C142.848 31.968 142.95 31.6886 142.95 31.3534ZM142.899 30.1035V28.209H143.603V33.0935H142.911V32.6103C142.616 32.9884 142.233 33.1774 141.764 33.1774C141.269 33.1774 140.861 33.0032 140.539 32.6553C140.214 32.2987 140.051 31.8648 140.051 31.3534C140.051 30.8467 140.214 30.417 140.539 30.0647C140.861 29.7125 141.267 29.5364 141.757 29.5364C142.21 29.5364 142.59 29.7253 142.899 30.1035ZM136.352 32.5264C136.67 32.5264 136.934 32.4124 137.145 32.1849C137.352 31.9613 137.456 31.6842 137.456 31.3534C137.456 31.0269 137.352 30.7523 137.145 30.5286C136.934 30.3008 136.67 30.1873 136.352 30.1873C136.027 30.1873 135.762 30.3008 135.56 30.5286C135.356 30.7523 135.255 31.0292 135.255 31.3599C135.255 31.6908 135.356 31.968 135.56 32.1915C135.762 32.4147 136.027 32.5264 136.352 32.5264ZM137.424 30.1035V29.6201H138.096V33.0935H137.424V32.6168C137.115 32.9904 136.726 33.1774 136.257 33.1774C135.762 33.1774 135.354 33.0013 135.033 32.6489C134.711 32.2964 134.551 31.8584 134.551 31.3342C134.551 30.8146 134.711 30.3848 135.033 30.0455C135.354 29.706 135.762 29.5364 136.257 29.5364C136.726 29.5364 137.115 29.7253 137.424 30.1035ZM131.81 33.0935H131.112V29.6201H131.778V30.1163C131.981 29.7253 132.305 29.5299 132.748 29.5299C132.892 29.5299 133.028 29.5493 133.154 29.5879L133.091 30.2776C132.977 30.2344 132.852 30.213 132.717 30.213C132.442 30.213 132.222 30.3073 132.057 30.4965C131.892 30.6853 131.81 30.9582 131.81 31.315V33.0935ZM127.603 33.0935V29.053H126.234V28.3312H129.716V29.053H128.346V33.0935H127.603ZM117.591 33.1774C117.321 33.1774 117.069 33.1152 116.836 32.9904C116.604 32.866 116.418 32.6852 116.278 32.449L116.729 32.0364C116.83 32.2042 116.96 32.3342 117.119 32.4265C117.278 32.519 117.439 32.5649 117.604 32.5649C117.769 32.5649 117.904 32.5233 118.01 32.4395C118.116 32.3557 118.169 32.2537 118.169 32.1335C118.169 31.9613 118.071 31.8285 117.877 31.7337C117.826 31.7036 117.689 31.6458 117.465 31.5598C117.236 31.461 117.092 31.3946 117.033 31.3599C116.67 31.1667 116.488 30.881 116.488 30.5029C116.488 30.2152 116.594 29.9767 116.805 29.7877C117.025 29.5986 117.308 29.504 117.655 29.504C118.141 29.504 118.516 29.6824 118.777 30.0387L118.372 30.4772C118.169 30.2239 117.919 30.097 117.623 30.097C117.483 30.097 117.373 30.1335 117.29 30.2064C117.208 30.2794 117.166 30.3698 117.166 30.4772C117.166 30.649 117.262 30.7757 117.452 30.8574L117.801 31.0055C118.025 31.1002 118.186 31.173 118.283 31.2246C118.672 31.4312 118.866 31.7231 118.866 32.1012C118.866 32.4062 118.748 32.6617 118.511 32.8682C118.274 33.0743 117.968 33.1774 117.591 33.1774ZM112.966 33.1774C112.51 33.1774 112.146 33.0422 111.876 32.7715C111.605 32.5009 111.47 32.1335 111.47 31.6694V29.6201H112.167V31.6631C112.167 31.9252 112.238 32.1335 112.38 32.288C112.521 32.4427 112.717 32.52 112.966 32.52C113.22 32.52 113.417 32.4449 113.556 32.2944C113.696 32.1439 113.766 31.9336 113.766 31.6631V29.6201H114.47V31.6694C114.47 32.142 114.337 32.5114 114.07 32.7779C113.804 33.0442 113.436 33.1774 112.966 33.1774ZM108.304 33.1774C108.033 33.1774 107.781 33.1152 107.549 32.9904C107.316 32.866 107.13 32.6852 106.991 32.449L107.441 32.0364C107.543 32.2042 107.672 32.3342 107.831 32.4265C107.989 32.519 108.151 32.5649 108.316 32.5649C108.481 32.5649 108.617 32.5233 108.722 32.4395C108.828 32.3557 108.881 32.2537 108.881 32.1335C108.881 31.9613 108.783 31.8285 108.589 31.7337C108.538 31.7036 108.401 31.6458 108.177 31.5598C107.949 31.461 107.805 31.3946 107.745 31.3599C107.382 31.1667 107.2 30.881 107.2 30.5029C107.2 30.2152 107.306 29.9767 107.517 29.7877C107.737 29.5986 108.02 29.504 108.367 29.504C108.853 29.504 109.227 29.6824 109.49 30.0387L109.084 30.4772C108.881 30.2239 108.631 30.097 108.335 30.097C108.196 30.097 108.085 30.1335 108.002 30.2064C107.92 30.2794 107.879 30.3698 107.879 30.4772C107.879 30.649 107.974 30.7757 108.164 30.8574L108.513 31.0055C108.737 31.1002 108.898 31.173 108.995 31.2246C109.384 31.4312 109.578 31.7231 109.578 32.1012C109.578 32.4062 109.46 32.6617 109.223 32.8682C108.987 33.0743 108.68 33.1774 108.304 33.1774ZM103.387 32.5264C103.704 32.5264 103.968 32.4124 104.18 32.1849C104.387 31.9613 104.491 31.6842 104.491 31.3534C104.491 31.0269 104.387 30.7523 104.18 30.5286C103.968 30.3008 103.704 30.1873 103.387 30.1873C103.061 30.1873 102.797 30.3008 102.594 30.5286C102.391 30.7523 102.29 31.0292 102.29 31.3599C102.29 31.6908 102.391 31.968 102.594 32.1915C102.797 32.4147 103.061 32.5264 103.387 32.5264ZM104.459 30.1035V29.6201H105.131V33.0935H104.459V32.6168C104.15 32.9904 103.761 33.1774 103.292 33.1774C102.797 33.1774 102.389 33.0013 102.068 32.6489C101.746 32.2964 101.586 31.8584 101.586 31.3342C101.586 30.8146 101.746 30.3848 102.068 30.0455C102.389 29.706 102.797 29.5364 103.292 29.5364C103.761 29.5364 104.15 29.7253 104.459 30.1035ZM98.337 33.1709C97.8042 33.1709 97.3706 33.0013 97.0368 32.6617C96.6984 32.3182 96.5292 31.8841 96.5292 31.3599C96.5292 30.8316 96.7006 30.3955 97.0431 30.052C97.3898 29.7081 97.8296 29.5364 98.3623 29.5364C98.7046 29.5364 99.0189 29.6201 99.3045 29.7877C99.5898 29.9553 99.8003 30.1807 99.9356 30.4644L99.3581 30.7929C99.2529 30.6085 99.1119 30.4612 98.9363 30.3514C98.7609 30.2421 98.5718 30.1873 98.3686 30.1873C98.0429 30.1873 97.7725 30.2988 97.5571 30.5224C97.3411 30.7502 97.2334 31.0292 97.2334 31.3599C97.2334 31.6824 97.339 31.9573 97.5506 32.1849C97.7578 32.4084 98.0221 32.52 98.3434 32.52C98.5463 32.52 98.7409 32.4644 98.9271 32.3525C99.1127 32.2407 99.2505 32.0992 99.3391 31.9274L99.9166 32.2688C99.777 32.5393 99.5646 32.7572 99.279 32.9226C98.9936 33.088 98.6795 33.1709 98.337 33.1709ZM93.1159 33.1774C92.659 33.1774 92.2954 33.0422 92.0247 32.7715C91.7542 32.5009 91.6188 32.1335 91.6188 31.6694V29.6201H92.3166V31.6631C92.3166 31.9252 92.3874 32.1335 92.5289 32.288C92.6706 32.4427 92.8665 32.52 93.1159 32.52C93.3699 32.52 93.5663 32.4449 93.7058 32.2944C93.8451 32.1439 93.9152 31.9336 93.9152 31.6631V29.6201H94.619V31.6694C94.619 32.142 94.4858 32.5114 94.2196 32.7779C93.953 33.0442 93.5852 33.1774 93.1159 33.1774ZM87.7616 32.5264C88.0788 32.5264 88.3431 32.4124 88.5546 32.1849C88.7617 31.9613 88.8655 31.6842 88.8655 31.3534C88.8655 31.0269 88.7617 30.7523 88.5546 30.5286C88.3431 30.3008 88.0788 30.1873 87.7616 30.1873C87.4361 30.1873 87.1717 30.3008 86.9688 30.5286C86.7657 30.7523 86.6642 31.0292 86.6642 31.3599C86.6642 31.6908 86.7657 31.968 86.9688 32.1915C87.1717 32.4147 87.4361 32.5264 87.7616 32.5264ZM88.8335 30.1035V29.6201H89.5057V33.0935H88.8335V32.6168C88.5249 32.9904 88.1357 33.1774 87.6665 33.1774C87.1717 33.1774 86.7638 33.0013 86.4423 32.6489C86.121 32.2964 85.9602 31.8584 85.9602 31.3342C85.9602 30.8146 86.121 30.3848 86.4423 30.0455C86.7638 29.706 87.1717 29.5364 87.6665 29.5364C88.1357 29.5364 88.5249 29.7253 88.8335 30.1035ZM82.2552 33.1646C81.5741 33.1646 81.0035 32.9366 80.5425 32.4815C80.0774 32.0215 79.8449 31.4374 79.8449 30.7285C79.8449 30.0065 80.0815 29.4139 80.5553 28.9498C81.0289 28.4816 81.6018 28.2473 82.2739 28.2473C82.6929 28.2473 83.0841 28.3418 83.4475 28.531C83.8069 28.7159 84.0882 28.9627 84.291 29.272L83.771 29.749C83.3864 29.2292 82.8936 28.9691 82.2931 28.9691C81.8194 28.9691 81.4177 29.137 81.0878 29.4719C80.7623 29.8114 80.5996 30.2302 80.5996 30.7285C80.5996 31.2312 80.7604 31.6434 81.0815 31.9657C81.4073 32.288 81.809 32.449 82.2866 32.449C82.9085 32.449 83.4116 32.1915 83.7964 31.6758L84.3164 32.1399C84.0925 32.4536 83.7986 32.7027 83.4349 32.8872C83.0712 33.072 82.678 33.1646 82.2552 33.1646ZM69.2113 30.1483C68.949 30.1483 68.726 30.2312 68.5421 30.3966C68.3582 30.5621 68.2408 30.7801 68.1901 31.0506H70.1814C70.152 30.7801 70.0474 30.5621 69.8677 30.3966C69.6882 30.2312 69.4693 30.1483 69.2113 30.1483ZM70.8857 31.2892C70.8857 31.4013 70.8774 31.5148 70.8606 31.6306H68.1901C68.2408 31.9101 68.3624 32.1311 68.5548 32.2944C68.7471 32.458 69.0041 32.5393 69.3256 32.5393C69.5199 32.5393 69.7241 32.5052 69.9377 32.4362C70.151 32.3675 70.3342 32.2772 70.4863 32.1656L70.7778 32.6874C70.3509 33.0097 69.8581 33.1709 69.3003 33.1709C68.6996 33.1709 68.2439 32.9925 67.933 32.636C67.6227 32.2794 67.467 31.8497 67.467 31.3472C67.467 30.8232 67.6278 30.3913 67.9489 30.052C68.2747 29.7081 68.6955 29.5364 69.2113 29.5364C69.7061 29.5364 70.1077 29.693 70.4162 30.0065C70.7294 30.3247 70.8857 30.7524 70.8857 31.2892ZM61.1526 28.7501C60.9243 28.7501 60.7495 28.8091 60.6294 28.9272C60.5086 29.0455 60.4485 29.214 60.4485 29.4333V29.6201H61.5269V30.226H60.4485V33.0935H59.7507V30.226H59.18V29.6201H59.7507V29.4202C59.7507 29.0036 59.869 28.6791 60.106 28.4474C60.343 28.2154 60.662 28.0993 61.0636 28.0993C61.3513 28.0993 61.6282 28.17 61.8945 28.3117L61.6729 28.8855C61.4655 28.7952 61.2921 28.7501 61.1526 28.7501ZM57.2613 28.7501C57.0329 28.7501 56.8585 28.8091 56.7379 28.9272C56.6176 29.0455 56.5574 29.214 56.5574 29.4333V29.6201H57.6354V30.226H56.5574V33.0935H55.8597V30.226H55.2888V29.6201H55.8597V29.4202C55.8597 29.0036 55.9779 28.6791 56.2148 28.4474C56.4516 28.2154 56.7708 28.0993 57.1726 28.0993C57.4602 28.0993 57.7371 28.17 58.0036 28.3117L57.7815 28.8855C57.5742 28.7952 57.4009 28.7501 57.2613 28.7501ZM52.9917 31.3534C52.9917 31.0356 52.884 30.7629 52.6682 30.5352C52.4612 30.3032 52.2011 30.1873 51.888 30.1873C51.5795 30.1873 51.3171 30.3032 51.1013 30.5352C50.89 30.7629 50.7842 31.0356 50.7842 31.3534C50.7842 31.6758 50.89 31.9509 51.1013 32.1783C51.3171 32.4062 51.5795 32.52 51.888 32.52C52.1969 32.52 52.4569 32.4062 52.6682 32.1783C52.884 31.9509 52.9917 31.6758 52.9917 31.3534ZM50.0803 31.3534C50.0803 30.851 50.2496 30.4213 50.5878 30.0647C50.9303 29.7081 51.3636 29.5299 51.888 29.5299C52.4124 29.5299 52.8438 29.7081 53.182 30.0647C53.5245 30.417 53.6956 30.8467 53.6956 31.3534C53.6956 31.869 53.5245 32.3029 53.182 32.6553C52.8481 33.0075 52.4165 33.1839 51.888 33.1839C51.3636 33.1839 50.9303 33.0075 50.5878 32.6553C50.2496 32.2987 50.0803 31.8648 50.0803 31.3534ZM46.375 33.1646C45.694 33.1646 45.1235 32.9366 44.6625 32.4815C44.1973 32.0215 43.9647 31.4374 43.9647 30.7285C43.9647 30.0065 44.2016 29.4139 44.6753 28.9498C45.149 28.4816 45.7217 28.2473 46.3942 28.2473C46.8128 28.2473 47.2038 28.3418 47.5676 28.531C47.927 28.7159 48.208 28.9627 48.4113 29.272L47.8909 29.749C47.5062 29.2292 47.0136 28.9691 46.4134 28.9691C45.9396 28.9691 45.5379 29.137 45.2079 29.4719C44.8824 29.8114 44.7197 30.2302 44.7197 30.7285C44.7197 31.2312 44.8802 31.6434 45.2014 31.9657C45.5273 32.288 45.9289 32.449 46.4069 32.449C47.0284 32.449 47.5315 32.1915 47.9164 31.6758L48.4365 32.1399C48.2123 32.4536 47.9186 32.7027 47.5547 32.8872C47.1913 33.072 46.7981 33.1646 46.375 33.1646ZM64.663 30.1483C64.4007 30.1483 64.1778 30.2312 63.9939 30.3966C63.81 30.5621 63.6925 30.7801 63.6419 31.0506H65.6334C65.6037 30.7801 65.4993 30.5621 65.3194 30.3966C65.1399 30.2312 64.9208 30.1483 64.663 30.1483ZM66.3375 31.2892C66.3375 31.4013 66.3292 31.5148 66.3121 31.6306H63.6419C63.6925 31.9101 63.8141 32.1311 64.0066 32.2944C64.199 32.458 64.456 32.5393 64.7772 32.5393C64.9716 32.5393 65.1758 32.5052 65.3895 32.4362C65.6027 32.3675 65.7859 32.2772 65.9379 32.1656L66.2296 32.6874C65.8026 33.0097 65.3099 33.1709 64.7517 33.1709C64.1515 33.1709 63.6957 32.9925 63.3849 32.636C63.074 32.2794 62.9186 31.8497 62.9186 31.3472C62.9186 30.8232 63.0792 30.3913 63.4006 30.052C63.7262 29.7081 64.1473 29.5364 64.663 29.5364C65.1578 29.5364 65.5594 29.693 65.8682 30.0065C66.1811 30.3247 66.3375 30.7524 66.3375 31.2892Z" fill="#94573C"/>
</g>
<defs>
<clipPath id="clip0_226_1445">
<rect width="164" height="36" fill="white"/>
</clipPath>
</defs>
</svg>
