<svg width="300" height="300" viewBox="0 0 300 300" fill="none" xmlns="http://www.w3.org/2000/svg">
  <rect width="300" height="300" fill="#F3F4F6"/>
  <path d="M150 100C133.431 100 120 113.431 120 130C120 146.569 133.431 160 150 160C166.569 160 180 146.569 180 130C180 113.431 166.569 100 150 100ZM150 150C140.059 150 132 141.941 132 132C132 122.059 140.059 114 150 114C159.941 114 168 122.059 168 132C168 141.941 159.941 150 150 150Z" fill="#9CA3AF"/>
  <path d="M150 80C120.294 80 96 104.294 96 134V150C96 179.706 120.294 204 150 204C179.706 204 204 179.706 204 150V134C204 104.294 179.706 80 150 80ZM150 192C128.909 192 112 175.091 112 154V138C112 116.909 128.909 100 150 100C171.091 100 188 116.909 188 138V154C188 175.091 171.091 192 150 192Z" fill="#9CA3AF"/>
  <path d="M150 120C138.954 120 130 128.954 130 140C130 151.046 138.954 160 150 160C161.046 160 170 151.046 170 140C170 128.954 161.046 120 150 120Z" fill="#9CA3AF"/>
</svg>